<svg xmlns="http://www.w3.org/2000/svg" xmlns:xlink="http://www.w3.org/1999/xlink" viewBox="0 0 273.82 239.29"><defs><style>.cls-1,.cls-32{fill:none;}.cls-2{font-size:12px;}.cls-12,.cls-15,.cls-17,.cls-2,.cls-20,.cls-21,.cls-6{fill:#231f20;font-family:Futura-Medium, Futura;font-weight:500;}.cls-3{letter-spacing:-0.08em;}.cls-4{letter-spacing:-0.06em;}.cls-5{letter-spacing:-0.08em;}.cls-12,.cls-15,.cls-17,.cls-20,.cls-6{font-size:9px;}.cls-13,.cls-6{letter-spacing:-0.03em;}.cls-20,.cls-7{letter-spacing:-0.03em;}.cls-8{letter-spacing:-0.04em;}.cls-9{letter-spacing:-0.16em;}.cls-10{letter-spacing:-0.04em;}.cls-11{letter-spacing:-0.05em;}.cls-12{letter-spacing:-0.11em;}.cls-14{letter-spacing:-0.04em;}.cls-15,.cls-18{letter-spacing:-0.11em;}.cls-16{letter-spacing:-0.12em;}.cls-17{letter-spacing:-0.09em;}.cls-19{letter-spacing:-0.03em;}.cls-21{font-size:10px;letter-spacing:-0.08em;}.cls-22{letter-spacing:-0.03em;}.cls-23{letter-spacing:-0.02em;}.cls-24{letter-spacing:-0.03em;}.cls-25{letter-spacing:-0.18em;}.cls-26{letter-spacing:-0.08em;}.cls-27{letter-spacing:-0.11em;}.cls-28{letter-spacing:-0.12em;}.cls-29{letter-spacing:-0.08em;}.cls-30{letter-spacing:-0.03em;}.cls-31{clip-path:url(#clip-path);}.cls-32{stroke:#010101;stroke-miterlimit:10;stroke-opacity:0;stroke-width:2px;}.cls-33{clip-path:url(#clip-path-2);}.cls-34{fill:#207b8d;}.cls-35{clip-path:url(#clip-path-14);}.cls-36{fill:#b83350;}.cls-37{fill:#fff;}</style><clipPath id="clip-path" transform="translate(-10.36 -1.96)"><rect class="cls-1" x="47.41" width="206.43" height="207.08"/></clipPath><clipPath id="clip-path-2" transform="translate(-10.36 -1.96)"><rect class="cls-1" x="0.11" y="0.48" width="202.81" height="203.45"/></clipPath><clipPath id="clip-path-14" transform="translate(-10.36 -1.96)"><rect class="cls-1" y="0.48" width="202.81" height="203.45"/></clipPath></defs><g id="Layer_2" data-name="Layer 2"><g id="Layer_1-2" data-name="Layer 1"><text class="cls-2" transform="translate(87.46 214.92)">2<tspan class="cls-3" x="7.41" y="0">0</tspan><tspan class="cls-4" x="13.89" y="0">1</tspan><tspan x="20.57" y="0">0</tspan></text><text class="cls-2" transform="translate(158.57 214.92)">2<tspan class="cls-3" x="7.41" y="0">0</tspan><tspan class="cls-5" x="13.89" y="0">1</tspan><tspan x="20.32" y="0">9</tspan></text><text class="cls-6" transform="translate(115.32 13.01)">85 &amp; older</text><text class="cls-6" transform="translate(118.7 30.35)">75 <tspan class="cls-7" x="13.02" y="0">t</tspan><tspan x="15.26" y="0">o </tspan><tspan class="cls-8" x="22.87" y="0">8</tspan><tspan x="28.02" y="0">4</tspan></text><text class="cls-6" transform="translate(118.7 46.4)">65 <tspan class="cls-7" x="13.02" y="0">t</tspan><tspan x="15.26" y="0">o </tspan><tspan class="cls-9" x="22.87" y="0">7</tspan><tspan x="27.01" y="0">4</tspan></text><text class="cls-6" transform="translate(117.89 63.03)">55 <tspan class="cls-7" x="13.02" y="0">t</tspan><tspan x="15.26" y="0">o </tspan><tspan class="cls-10" x="22.87" y="0">6</tspan><tspan x="28.06" y="0">4</tspan></text><text class="cls-6" transform="translate(118.7 80.64)">45 <tspan class="cls-7" x="13.02" y="0">t</tspan><tspan x="15.26" y="0">o </tspan><tspan class="cls-11" x="22.87" y="0">5</tspan><tspan x="27.93" y="0">4</tspan></text><text class="cls-6" transform="translate(119.16 97.02)">35 <tspan class="cls-7" x="13.02" y="0">t</tspan><tspan x="15.26" y="0">o 44</tspan></text><text class="cls-6" transform="translate(118.93 114.04)">25 <tspan class="cls-7" x="13.02" y="0">t</tspan><tspan x="15.26" y="0">o </tspan><tspan class="cls-11" x="22.87" y="0">3</tspan><tspan x="27.93" y="0">4</tspan></text><text class="cls-12" transform="translate(118.93 129.58)">1<tspan class="cls-13" x="4.59" y="0">8 </tspan><tspan class="cls-7" x="12.35" y="0">t</tspan><tspan class="cls-13" x="14.58" y="0">o </tspan><tspan class="cls-14" x="22.19" y="0">2</tspan><tspan class="cls-13" x="27.4" y="0">4</tspan></text><text class="cls-15" transform="translate(118.93 146.28)">1<tspan class="cls-13" x="4.55" y="0">5 </tspan><tspan class="cls-7" x="12.31" y="0">t</tspan><tspan class="cls-13" x="14.55" y="0">o </tspan><tspan class="cls-16" x="22.16" y="0">1</tspan><tspan class="cls-13" x="26.59" y="0">7</tspan></text><text class="cls-17" transform="translate(120.2 163.86)">1<tspan class="cls-13" x="4.73" y="0">0 </tspan><tspan class="cls-7" x="12.48" y="0">t</tspan><tspan class="cls-13" x="14.72" y="0">o </tspan><tspan class="cls-18" x="22.33" y="0">1</tspan><tspan class="cls-13" x="26.88" y="0">4</tspan></text><text class="cls-6" transform="translate(121.63 180.47)">5 <tspan class="cls-19" x="7.76" y="0">t</tspan><tspan x="9.99" y="0">o 9</tspan></text><text class="cls-20" transform="translate(117.89 195.89)">U<tspan class="cls-13" x="6.42" y="0">nder 5</tspan></text><text class="cls-21" transform="translate(157.86 227.98)">T<tspan class="cls-22" x="4.06" y="0">o</tspan><tspan class="cls-23" x="9.8" y="0">t</tspan><tspan class="cls-24" x="12.31" y="0">al population: 9,226</tspan></text><text class="cls-21" transform="translate(13.74 226.38)">T<tspan class="cls-22" x="4.06" y="0">o</tspan><tspan class="cls-23" x="9.8" y="0">t</tspan><tspan class="cls-24" x="12.31" y="0">al population: </tspan><tspan class="cls-25" x="73.91" y="0">1</tspan><tspan class="cls-26" x="78.3" y="0">1</tspan><tspan class="cls-27" x="83.69" y="0">,</tspan><tspan class="cls-28" x="85.73" y="0">1</tspan><tspan class="cls-29" x="90.7" y="0">6</tspan><tspan class="cls-30" x="96.05" y="0">7</tspan></text><g class="cls-31"><path class="cls-32" d="M171.08,201.51V190.29H148v11.22Z" transform="translate(-10.36 -1.96)"/></g><g class="cls-33"><path class="cls-34" d="M121.61,198.46v-11H98.93v11Z" transform="translate(-10.36 -1.96)"/></g><g class="cls-31"><path class="cls-32" d="M171.08,185V173.8H150V185Z" transform="translate(-10.36 -1.96)"/></g><g class="cls-33"><path class="cls-34" d="M121.61,182.25v-11H100.87v11Z" transform="translate(-10.36 -1.96)"/></g><g class="cls-31"><path class="cls-32" d="M171.08,167.86V156.65H144.7v11.21Z" transform="translate(-10.36 -1.96)"/></g><g class="cls-33"><path class="cls-34" d="M121.61,165.4v-11H95.69v11Z" transform="translate(-10.36 -1.96)"/></g><g class="cls-31"><path class="cls-32" d="M171.08,151.37V140.16H150v11.21Z" transform="translate(-10.36 -1.96)"/></g><g class="cls-33"><path class="cls-34" d="M121.61,149.2v-11H100.87v11Z" transform="translate(-10.36 -1.96)"/></g><g class="cls-31"><path class="cls-32" d="M171.08,134.88V123.66H113v11.22Z" transform="translate(-10.36 -1.96)"/></g><g class="cls-33"><path class="cls-34" d="M121.61,133V122h-57v11Z" transform="translate(-10.36 -1.96)"/></g><g class="cls-31"><path class="cls-32" d="M171.08,117.73V106.51H108.41v11.22Z" transform="translate(-10.36 -1.96)"/></g><g class="cls-33"><path class="cls-34" d="M121.61,116.14v-11H60v11Z" transform="translate(-10.36 -1.96)"/></g><g class="cls-31"><path class="cls-32" d="M171.08,101.23V90h-60v11.21Z" transform="translate(-10.36 -1.96)"/></g><g class="cls-35"><path class="cls-34" d="M121.5,99.94v-11h-59v11Z" transform="translate(-10.36 -1.96)"/></g><g class="cls-31"><path class="cls-32" d="M171.08,84.08V72.86H79.38V84.08Z" transform="translate(-10.36 -1.96)"/></g><g class="cls-33"><path class="cls-34" d="M121.61,83.09v-11H31.52v11Z" transform="translate(-10.36 -1.96)"/></g><g class="cls-31"><path class="cls-32" d="M171.08,67.59V56.37H120.29V67.59Z" transform="translate(-10.36 -1.96)"/></g><g class="cls-33"><path class="cls-34" d="M121.61,66.88v-11H71.71v11Z" transform="translate(-10.36 -1.96)"/></g><g class="cls-31"><path class="cls-32" d="M171.08,51.09V39.88h-24.4V51.09Z" transform="translate(-10.36 -1.96)"/></g><g class="cls-33"><path class="cls-34" d="M121.61,50.68v-11h-24v11Z" transform="translate(-10.36 -1.96)"/></g><g class="cls-31"><path class="cls-32" d="M171.08,33.94V22.73H157.89V33.94Z" transform="translate(-10.36 -1.96)"/></g><g class="cls-33"><path class="cls-34" d="M121.61,33.83v-11h-13v11Z" transform="translate(-10.36 -1.96)"/></g><g class="cls-31"><path class="cls-32" d="M171.08,17.45V6.23h-5.27V17.45Z" transform="translate(-10.36 -1.96)"/></g><g class="cls-33"><path class="cls-34" d="M121.61,17.63v-11h-5.18v11Z" transform="translate(-10.36 -1.96)"/></g><g class="cls-31"><path class="cls-32" d="M171.08,201.51V190.29h23.09a1.32,1.32,0,0,1,1.32,1.32v8.58a1.32,1.32,0,0,1-1.32,1.32Z" transform="translate(-10.36 -1.96)"/></g><g class="cls-31"><path class="cls-36" d="M171.08,201.51V190.29h23.09a1.32,1.32,0,0,1,1.32,1.32v8.58a1.32,1.32,0,0,1-1.32,1.32Z" transform="translate(-10.36 -1.96)"/></g><g class="cls-31"><path class="cls-32" d="M171.08,185V173.8h23.75a1.32,1.32,0,0,1,1.32,1.32v8.58a1.33,1.33,0,0,1-1.32,1.32Z" transform="translate(-10.36 -1.96)"/></g><g class="cls-31"><path class="cls-36" d="M171.08,185V173.8h23.75a1.32,1.32,0,0,1,1.32,1.32v8.58a1.33,1.33,0,0,1-1.32,1.32Z" transform="translate(-10.36 -1.96)"/></g><g class="cls-31"><path class="cls-32" d="M171.08,167.86V156.65h29a1.32,1.32,0,0,1,1.32,1.32v8.57a1.32,1.32,0,0,1-1.32,1.32Z" transform="translate(-10.36 -1.96)"/></g><g class="cls-31"><path class="cls-36" d="M171.08,167.86V156.65h29a1.32,1.32,0,0,1,1.32,1.32v8.57a1.32,1.32,0,0,1-1.32,1.32Z" transform="translate(-10.36 -1.96)"/></g><g class="cls-31"><path class="cls-32" d="M171.08,151.37V140.16H181a1.32,1.32,0,0,1,1.32,1.31v8.58a1.32,1.32,0,0,1-1.32,1.32Z" transform="translate(-10.36 -1.96)"/></g><g class="cls-31"><path class="cls-36" d="M171.08,151.37V140.16H181a1.32,1.32,0,0,1,1.32,1.31v8.58a1.32,1.32,0,0,1-1.32,1.32Z" transform="translate(-10.36 -1.96)"/></g><g class="cls-31"><path class="cls-32" d="M171.08,134.88V123.66h44.21A1.32,1.32,0,0,1,216.6,125v8.58a1.32,1.32,0,0,1-1.31,1.32Z" transform="translate(-10.36 -1.96)"/></g><g class="cls-31"><path class="cls-36" d="M171.08,134.88V123.66h44.21A1.32,1.32,0,0,1,216.6,125v8.58a1.32,1.32,0,0,1-1.31,1.32Z" transform="translate(-10.36 -1.96)"/></g><g class="cls-31"><path class="cls-32" d="M171.08,117.73V106.51h49.48a1.32,1.32,0,0,1,1.32,1.32v8.58a1.33,1.33,0,0,1-1.32,1.32Z" transform="translate(-10.36 -1.96)"/></g><g class="cls-31"><path class="cls-36" d="M171.08,117.73V106.51h49.48a1.32,1.32,0,0,1,1.32,1.32v8.58a1.33,1.33,0,0,1-1.32,1.32Z" transform="translate(-10.36 -1.96)"/></g><g class="cls-31"><path class="cls-32" d="M171.08,101.23V90h40.25a1.32,1.32,0,0,1,1.32,1.32v8.57a1.32,1.32,0,0,1-1.32,1.32Z" transform="translate(-10.36 -1.96)"/></g><g class="cls-31"><path class="cls-36" d="M171.08,101.23V90h40.25a1.32,1.32,0,0,1,1.32,1.32v8.57a1.32,1.32,0,0,1-1.32,1.32Z" transform="translate(-10.36 -1.96)"/></g><g class="cls-31"><path class="cls-32" d="M171.08,84.08V72.86h44.21a1.32,1.32,0,0,1,1.31,1.32v8.58a1.32,1.32,0,0,1-1.31,1.32Z" transform="translate(-10.36 -1.96)"/></g><g class="cls-31"><path class="cls-36" d="M171.08,84.08V72.86h44.21a1.32,1.32,0,0,1,1.31,1.32v8.58a1.32,1.32,0,0,1-1.31,1.32Z" transform="translate(-10.36 -1.96)"/></g><g class="cls-31"><path class="cls-32" d="M171.08,67.59V56.37h46.84a1.32,1.32,0,0,1,1.32,1.32v8.58a1.32,1.32,0,0,1-1.32,1.32Z" transform="translate(-10.36 -1.96)"/></g><g class="cls-31"><path class="cls-36" d="M171.08,67.59V56.37h46.84a1.32,1.32,0,0,1,1.32,1.32v8.58a1.32,1.32,0,0,1-1.32,1.32Z" transform="translate(-10.36 -1.96)"/></g><g class="cls-31"><path class="cls-32" d="M171.08,51.09V39.88h35a1.32,1.32,0,0,1,1.32,1.32v8.58a1.32,1.32,0,0,1-1.32,1.31Z" transform="translate(-10.36 -1.96)"/></g><g class="cls-31"><path class="cls-36" d="M171.08,51.09V39.88h35a1.32,1.32,0,0,1,1.32,1.32v8.58a1.32,1.32,0,0,1-1.32,1.31Z" transform="translate(-10.36 -1.96)"/></g><g class="cls-31"><path class="cls-32" d="M171.08,33.94V22.73h18.48a1.32,1.32,0,0,1,1.32,1.32v8.57a1.32,1.32,0,0,1-1.32,1.32Z" transform="translate(-10.36 -1.96)"/></g><g class="cls-31"><path class="cls-36" d="M171.08,33.94V22.73h18.48a1.32,1.32,0,0,1,1.32,1.32v8.57a1.32,1.32,0,0,1-1.32,1.32Z" transform="translate(-10.36 -1.96)"/></g><g class="cls-31"><path class="cls-32" d="M171.08,17.45V6.23h4.62A1.32,1.32,0,0,1,177,7.55v8.58a1.32,1.32,0,0,1-1.32,1.32Z" transform="translate(-10.36 -1.96)"/></g><g class="cls-31"><path class="cls-36" d="M171.08,17.45V6.23h4.62A1.32,1.32,0,0,1,177,7.55v8.58a1.32,1.32,0,0,1-1.32,1.32Z" transform="translate(-10.36 -1.96)"/></g><rect class="cls-37" x="166.33" width="2.29" height="16.75"/><rect class="cls-37" x="179.49" y="16.75" width="2.29" height="16.75"/><rect class="cls-37" x="195.68" y="34.76" width="2.29" height="16.75"/><rect class="cls-37" x="207.68" y="52.76" width="2.29" height="16.75"/><rect class="cls-37" x="205.68" y="69.76" width="2.29" height="16.75"/><rect class="cls-37" x="210.68" y="102.76" width="2.29" height="16.75"/><rect class="cls-37" x="205.68" y="120.76" width="2.29" height="16.75"/><rect class="cls-37" x="170.68" y="135.76" width="2.29" height="16.75"/><rect class="cls-37" x="190.68" y="151.76" width="2.29" height="16.75"/><rect class="cls-37" x="184.68" y="168.76" width="2.29" height="16.75"/><rect class="cls-37" x="184.68" y="186.76" width="2.29" height="16.75"/></g></g></svg>