<svg xmlns="http://www.w3.org/2000/svg" xmlns:xlink="http://www.w3.org/1999/xlink" viewBox="0 0 335.99 239.84"><defs><style>.cls-1,.cls-27{fill:none;}.cls-2{font-size:12px;}.cls-12,.cls-15,.cls-18,.cls-19,.cls-2,.cls-34,.cls-6{fill:#231f20;font-family:Futura-Medium, Futura;font-weight:500;}.cls-3{letter-spacing:-0.08em;}.cls-4{letter-spacing:-0.06em;}.cls-5{letter-spacing:-0.08em;}.cls-12,.cls-15,.cls-18,.cls-34,.cls-6{font-size:9px;}.cls-13,.cls-6{letter-spacing:-0.03em;}.cls-18,.cls-7{letter-spacing:-0.03em;}.cls-8{letter-spacing:-0.04em;}.cls-9{letter-spacing:-0.16em;}.cls-10{letter-spacing:-0.04em;}.cls-11{letter-spacing:-0.05em;}.cls-12{letter-spacing:-0.11em;}.cls-14{letter-spacing:-0.04em;}.cls-15,.cls-35{letter-spacing:-0.11em;}.cls-16{letter-spacing:-0.12em;}.cls-17{letter-spacing:-0.03em;}.cls-19{font-size:10px;letter-spacing:-0.08em;}.cls-20{letter-spacing:-0.03em;}.cls-21{letter-spacing:-0.02em;}.cls-22{letter-spacing:-0.03em;}.cls-23{letter-spacing:-0.06em;}.cls-24{letter-spacing:-0.16em;}.cls-25{letter-spacing:-0.03em;}.cls-26{clip-path:url(#clip-path);}.cls-27{stroke:#010101;stroke-miterlimit:10;stroke-opacity:0;stroke-width:2px;}.cls-28{clip-path:url(#clip-path-2);}.cls-29{fill:#207b8d;}.cls-30{clip-path:url(#clip-path-25);}.cls-31{fill:#b83350;}.cls-32{clip-path:url(#clip-path-46);}.cls-33{fill:#fff;}.cls-34{letter-spacing:-0.09em;}</style><clipPath id="clip-path" transform="translate(-42.25 -2.82)"><rect class="cls-1" x="43.56" width="349.9" height="207.32"/></clipPath><clipPath id="clip-path-2" transform="translate(-42.25 -2.82)"><rect class="cls-1" y="4" width="341.46" height="202.32"/></clipPath><clipPath id="clip-path-25" transform="translate(-42.25 -2.82)"><rect class="cls-1" x="44.56" y="2.25" width="344.41" height="204.07"/></clipPath><clipPath id="clip-path-46" transform="translate(-42.25 -2.82)"><rect class="cls-1" x="43.56" y="2.25" width="344.41" height="204.07"/></clipPath></defs><g id="Layer_2" data-name="Layer 2"><g id="Layer_1-2" data-name="Layer 1"><text class="cls-2" transform="translate(102.78 215.48)">2<tspan class="cls-3" x="7.41" y="0">0</tspan><tspan class="cls-4" x="13.89" y="0">1</tspan><tspan x="20.57" y="0">0</tspan></text><text class="cls-2" transform="translate(173.9 215.48)">2<tspan class="cls-3" x="7.41" y="0">0</tspan><tspan class="cls-5" x="13.89" y="0">1</tspan><tspan x="20.32" y="0">9</tspan></text><text class="cls-6" transform="translate(130.65 13.56)">85 &amp; older</text><text class="cls-6" transform="translate(134.03 30.91)">75 <tspan class="cls-7" x="13.02" y="0">t</tspan><tspan x="15.26" y="0">o </tspan><tspan class="cls-8" x="22.87" y="0">8</tspan><tspan x="28.02" y="0">4</tspan></text><text class="cls-6" transform="translate(134.03 46.95)">65 <tspan class="cls-7" x="13.02" y="0">t</tspan><tspan x="15.26" y="0">o </tspan><tspan class="cls-9" x="22.87" y="0">7</tspan><tspan x="27.01" y="0">4</tspan></text><text class="cls-6" transform="translate(133.22 63.59)">55 <tspan class="cls-7" x="13.02" y="0">t</tspan><tspan x="15.26" y="0">o </tspan><tspan class="cls-10" x="22.87" y="0">6</tspan><tspan x="28.06" y="0">4</tspan></text><text class="cls-6" transform="translate(134.03 81.19)">45 <tspan class="cls-7" x="13.02" y="0">t</tspan><tspan x="15.26" y="0">o </tspan><tspan class="cls-11" x="22.87" y="0">5</tspan><tspan x="27.93" y="0">4</tspan></text><text class="cls-6" transform="translate(134.48 97.57)">35 <tspan class="cls-7" x="13.02" y="0">t</tspan><tspan x="15.26" y="0">o 44</tspan></text><text class="cls-6" transform="translate(134.26 114.59)">25 <tspan class="cls-7" x="13.02" y="0">t</tspan><tspan x="15.26" y="0">o </tspan><tspan class="cls-11" x="22.87" y="0">3</tspan><tspan x="27.93" y="0">4</tspan></text><text class="cls-12" transform="translate(134.26 130.13)">1<tspan class="cls-13" x="4.59" y="0">8 </tspan><tspan class="cls-7" x="12.35" y="0">t</tspan><tspan class="cls-13" x="14.58" y="0">o </tspan><tspan class="cls-14" x="22.19" y="0">2</tspan><tspan class="cls-13" x="27.4" y="0">4</tspan></text><text class="cls-15" transform="translate(134.26 146.83)">1<tspan class="cls-13" x="4.55" y="0">5 </tspan><tspan class="cls-7" x="12.31" y="0">t</tspan><tspan class="cls-13" x="14.55" y="0">o </tspan><tspan class="cls-16" x="22.16" y="0">1</tspan><tspan class="cls-13" x="26.59" y="0">7</tspan></text><text class="cls-6" transform="translate(137.12 179.07)">5 <tspan class="cls-17" x="7.76" y="0">t</tspan><tspan x="9.99" y="0">o 9</tspan></text><text class="cls-18" transform="translate(133.22 196.45)">U<tspan class="cls-13" x="6.42" y="0">nder 5</tspan></text><text class="cls-19" transform="translate(173.18 228.53)">T<tspan class="cls-20" x="4.06" y="0">o</tspan><tspan class="cls-21" x="9.8" y="0">t</tspan><tspan class="cls-22" x="12.31" y="0">al population: </tspan><tspan class="cls-23" x="73.91" y="0">2</tspan><tspan class="cls-24" x="79.5" y="0">7</tspan><tspan class="cls-25" x="84.07" y="0">,732</tspan></text><text class="cls-19" transform="translate(25.04 226.93)">T<tspan class="cls-20" x="4.06" y="0">o</tspan><tspan class="cls-21" x="9.8" y="0">t</tspan><tspan class="cls-22" x="12.31" y="0">al population: 25,683</tspan></text><g class="cls-26"><path class="cls-27" d="M218.1,202V191.26H174.35V202Z" transform="translate(-42.25 -2.82)"/></g><g class="cls-28"><path class="cls-29" d="M170.33,201.12V190.65h-42.7v10.47Z" transform="translate(-42.25 -2.82)"/></g><g class="cls-26"><path class="cls-27" d="M218.1,184.66V173.93H181.78v10.73Z" transform="translate(-42.25 -2.82)"/></g><g class="cls-28"><path class="cls-29" d="M170.33,184.21V173.74H134.88v10.47Z" transform="translate(-42.25 -2.82)"/></g><g class="cls-26"><path class="cls-27" d="M218.1,168.15V157.42H181v10.73Z" transform="translate(-42.25 -2.82)"/></g><g class="cls-28"><path class="cls-29" d="M170.33,168.1V157.63H134.08V168.1Z" transform="translate(-42.25 -2.82)"/></g><g class="cls-26"><path class="cls-27" d="M218.1,151.64V140.91H196.64v10.73Z" transform="translate(-42.25 -2.82)"/></g><g class="cls-28"><path class="cls-29" d="M170.33,152V141.52h-21V152Z" transform="translate(-42.25 -2.82)"/></g><g class="cls-26"><path class="cls-27" d="M218.1,134.31V123.58H163.62v10.73Z" transform="translate(-42.25 -2.82)"/></g><g class="cls-28"><path class="cls-29" d="M170.33,135.07V124.6H117.16v10.47Z" transform="translate(-42.25 -2.82)"/></g><g class="cls-26"><path class="cls-27" d="M218.1,117.8V107.07H86.85V117.8Z" transform="translate(-42.25 -2.82)"/></g><g class="cls-28"><path class="cls-29" d="M170.33,119V108.49H42.25V119Z" transform="translate(-42.25 -2.82)"/></g><g class="cls-26"><path class="cls-27" d="M218.1,101.29V90.56h-90v10.73Z" transform="translate(-42.25 -2.82)"/></g><g class="cls-28"><path class="cls-29" d="M170.33,102.85V92.38H82.53v10.47Z" transform="translate(-42.25 -2.82)"/></g><g class="cls-26"><path class="cls-27" d="M218.1,84V73.23H139.68V84Z" transform="translate(-42.25 -2.82)"/></g><g class="cls-28"><path class="cls-29" d="M170.33,85.93V75.46H93.8V85.93Z" transform="translate(-42.25 -2.82)"/></g><g class="cls-26"><path class="cls-27" d="M218.1,67.45V56.72H164.44V67.45Z" transform="translate(-42.25 -2.82)"/></g><g class="cls-28"><path class="cls-29" d="M170.33,69.82V59.35H118V69.82Z" transform="translate(-42.25 -2.82)"/></g><g class="cls-26"><path class="cls-27" d="M218.1,50.94V40.21H190.86V50.94Z" transform="translate(-42.25 -2.82)"/></g><g class="cls-28"><path class="cls-29" d="M170.33,53.71V43.24H143.74V53.71Z" transform="translate(-42.25 -2.82)"/></g><g class="cls-26"><path class="cls-27" d="M218.1,33.61V22.88H203.24V33.61Z" transform="translate(-42.25 -2.82)"/></g><g class="cls-28"><path class="cls-29" d="M170.33,36.8V26.33h-14.5V36.8Z" transform="translate(-42.25 -2.82)"/></g><g class="cls-26"><path class="cls-27" d="M218.1,17.1V6.37h-4.95V17.1Z" transform="translate(-42.25 -2.82)"/></g><g class="cls-28"><path class="cls-29" d="M170.33,20.69V10.22h-4.84V20.69Z" transform="translate(-42.25 -2.82)"/></g><g class="cls-30"><path class="cls-27" d="M216.36,201.08V190.52h49.56a1.62,1.62,0,0,1,1.63,1.62v7.31a1.63,1.63,0,0,1-1.63,1.63Z" transform="translate(-42.25 -2.82)"/></g><g class="cls-30"><path class="cls-31" d="M216.36,201.08V190.52h49.56a1.62,1.62,0,0,1,1.63,1.62v7.31a1.63,1.63,0,0,1-1.63,1.63Z" transform="translate(-42.25 -2.82)"/></g><g class="cls-30"><path class="cls-27" d="M216.36,184V173.45H251.3a1.62,1.62,0,0,1,1.62,1.63v7.31A1.62,1.62,0,0,1,251.3,184Z" transform="translate(-42.25 -2.82)"/></g><g class="cls-30"><path class="cls-31" d="M216.36,184V173.45H251.3a1.62,1.62,0,0,1,1.62,1.63v7.31A1.62,1.62,0,0,1,251.3,184Z" transform="translate(-42.25 -2.82)"/></g><g class="cls-30"><path class="cls-27" d="M216.36,167.77V157.2h26.81a1.63,1.63,0,0,1,1.63,1.63v7.31a1.63,1.63,0,0,1-1.63,1.63Z" transform="translate(-42.25 -2.82)"/></g><g class="cls-30"><path class="cls-31" d="M216.36,167.77V157.2h26.81a1.63,1.63,0,0,1,1.63,1.63v7.31a1.63,1.63,0,0,1-1.63,1.63Z" transform="translate(-42.25 -2.82)"/></g><g class="cls-30"><path class="cls-27" d="M216.36,151.52V141h11.38a1.63,1.63,0,0,1,1.62,1.63v7.31a1.63,1.63,0,0,1-1.62,1.63Z" transform="translate(-42.25 -2.82)"/></g><g class="cls-30"><path class="cls-31" d="M216.36,151.52V141h11.38a1.63,1.63,0,0,1,1.62,1.63v7.31a1.63,1.63,0,0,1-1.62,1.63Z" transform="translate(-42.25 -2.82)"/></g><g class="cls-30"><path class="cls-27" d="M216.36,134.45V123.89h52.81a1.63,1.63,0,0,1,1.63,1.63v7.31a1.62,1.62,0,0,1-1.63,1.62Z" transform="translate(-42.25 -2.82)"/></g><g class="cls-30"><path class="cls-31" d="M216.36,134.45V123.89h52.81a1.63,1.63,0,0,1,1.63,1.63v7.31a1.62,1.62,0,0,1-1.63,1.62Z" transform="translate(-42.25 -2.82)"/></g><g class="cls-30"><path class="cls-27" d="M216.36,118.2V107.64H375.61a1.63,1.63,0,0,1,1.63,1.63v7.31a1.62,1.62,0,0,1-1.63,1.62Z" transform="translate(-42.25 -2.82)"/></g><g class="cls-30"><path class="cls-31" d="M216.36,118.2V107.64H375.61a1.63,1.63,0,0,1,1.63,1.63v7.31a1.62,1.62,0,0,1-1.63,1.62Z" transform="translate(-42.25 -2.82)"/></g><g class="cls-30"><path class="cls-27" d="M216.36,102V91.39H296A1.63,1.63,0,0,1,297.61,93v7.31A1.62,1.62,0,0,1,296,102Z" transform="translate(-42.25 -2.82)"/></g><g class="cls-30"><path class="cls-31" d="M216.36,102V91.39H296A1.63,1.63,0,0,1,297.61,93v7.31A1.62,1.62,0,0,1,296,102Z" transform="translate(-42.25 -2.82)"/></g><g class="cls-30"><path class="cls-27" d="M216.36,84.89V74.33h83.69A1.62,1.62,0,0,1,301.67,76v7.31a1.61,1.61,0,0,1-1.62,1.62Z" transform="translate(-42.25 -2.82)"/></g><g class="cls-30"><path class="cls-31" d="M216.36,84.89V74.33h83.69A1.62,1.62,0,0,1,301.67,76v7.31a1.61,1.61,0,0,1-1.62,1.62Z" transform="translate(-42.25 -2.82)"/></g><g class="cls-30"><path class="cls-27" d="M216.36,68.64V58.08h65A1.63,1.63,0,0,1,283,59.71V67a1.62,1.62,0,0,1-1.63,1.62Z" transform="translate(-42.25 -2.82)"/></g><g class="cls-30"><path class="cls-31" d="M216.36,68.64V58.08h65A1.63,1.63,0,0,1,283,59.71V67a1.62,1.62,0,0,1-1.63,1.62Z" transform="translate(-42.25 -2.82)"/></g><g class="cls-30"><path class="cls-27" d="M216.36,52.39V41.83h37.38a1.63,1.63,0,0,1,1.62,1.63v7.31a1.62,1.62,0,0,1-1.62,1.62Z" transform="translate(-42.25 -2.82)"/></g><g class="cls-30"><path class="cls-31" d="M216.36,52.39V41.83h37.38a1.63,1.63,0,0,1,1.62,1.63v7.31a1.62,1.62,0,0,1-1.62,1.62Z" transform="translate(-42.25 -2.82)"/></g><g class="cls-30"><path class="cls-27" d="M216.36,35.33V24.77h13.81a1.63,1.63,0,0,1,1.63,1.62v7.32a1.63,1.63,0,0,1-1.63,1.62Z" transform="translate(-42.25 -2.82)"/></g><g class="cls-32"><path class="cls-31" d="M215.36,35.33V24.77h13.81a1.63,1.63,0,0,1,1.63,1.62v7.32a1.63,1.63,0,0,1-1.63,1.62Z" transform="translate(-42.25 -2.82)"/></g><g class="cls-30"><path class="cls-27" d="M216.36,19.08V8.52h4.88a1.62,1.62,0,0,1,1.62,1.62v7.32a1.62,1.62,0,0,1-1.62,1.62Z" transform="translate(-42.25 -2.82)"/></g><g class="cls-30"><path class="cls-31" d="M216.36,19.08V8.52h4.88a1.62,1.62,0,0,1,1.62,1.62v7.32a1.62,1.62,0,0,1-1.62,1.62Z" transform="translate(-42.25 -2.82)"/></g><rect class="cls-33" x="179.67" width="2.26" height="16.49"/><rect class="cls-33" x="187.62" y="17.2" width="2.26" height="16.49"/><rect class="cls-33" x="212.09" y="33.9" width="2.26" height="16.49"/><rect class="cls-33" x="243.28" y="50.99" width="2.29" height="16.75"/><rect class="cls-33" x="262.28" y="67.99" width="2.29" height="16.75"/><rect class="cls-33" x="258.28" y="84.99" width="2.29" height="16.75"/><rect class="cls-33" x="227.02" y="117.43" width="2.26" height="16.49"/><rect class="cls-33" x="185.68" y="135.14" width="2.26" height="16.49"/><rect class="cls-33" x="201.43" y="150.89" width="2.26" height="16.49"/><rect class="cls-33" x="209.3" y="165.66" width="2.26" height="16.49"/><rect class="cls-33" x="224.07" y="185.34" width="2.26" height="16.49"/><text class="cls-34" transform="translate(134.11 163.21)">1<tspan class="cls-13" x="4.73" y="0">0 </tspan><tspan class="cls-7" x="12.48" y="0">t</tspan><tspan class="cls-13" x="14.72" y="0">o </tspan><tspan class="cls-35" x="22.33" y="0">1</tspan><tspan class="cls-13" x="26.88" y="0">4</tspan></text></g></g></svg>