<svg xmlns="http://www.w3.org/2000/svg" xmlns:xlink="http://www.w3.org/1999/xlink" viewBox="0 0 328.62 237.75"><defs><style>.cls-1,.cls-24{fill:none;}.cls-2{font-size:12px;}.cls-12,.cls-15,.cls-18,.cls-19,.cls-2,.cls-29,.cls-6{fill:#231f20;font-family:Futura-Medium, Futura;font-weight:500;}.cls-3{letter-spacing:-0.08em;}.cls-4{letter-spacing:-0.06em;}.cls-5{letter-spacing:-0.08em;}.cls-12,.cls-15,.cls-18,.cls-29,.cls-6{font-size:9px;}.cls-13,.cls-6{letter-spacing:-0.03em;}.cls-18,.cls-7{letter-spacing:-0.03em;}.cls-8{letter-spacing:-0.04em;}.cls-9{letter-spacing:-0.16em;}.cls-10{letter-spacing:-0.04em;}.cls-11{letter-spacing:-0.05em;}.cls-12{letter-spacing:-0.11em;}.cls-14{letter-spacing:-0.04em;}.cls-15,.cls-30{letter-spacing:-0.11em;}.cls-16{letter-spacing:-0.12em;}.cls-17{letter-spacing:-0.03em;}.cls-19{font-size:10px;letter-spacing:-0.08em;}.cls-20{letter-spacing:-0.03em;}.cls-21{letter-spacing:-0.02em;}.cls-22{letter-spacing:-0.03em;}.cls-23{clip-path:url(#clip-path);}.cls-24{stroke:#010101;stroke-miterlimit:10;stroke-opacity:0;stroke-width:2px;}.cls-25{clip-path:url(#clip-path-2);}.cls-26{fill:#207b8d;}.cls-27{fill:#b83350;}.cls-28{fill:#fff;}.cls-29{letter-spacing:-0.09em;}</style><clipPath id="clip-path" transform="translate(-32.33 -3.19)"><rect class="cls-1" x="45.95" width="350.78" height="207.84"/></clipPath><clipPath id="clip-path-2" transform="translate(-32.33 -3.19)"><rect class="cls-1" width="347.41" height="205.84"/></clipPath></defs><g id="Layer_2" data-name="Layer 2"><g id="Layer_1-2" data-name="Layer 1"><text class="cls-2" transform="translate(115.1 213.38)">2<tspan class="cls-3" x="7.41" y="0">0</tspan><tspan class="cls-4" x="13.89" y="0">1</tspan><tspan x="20.57" y="0">0</tspan></text><text class="cls-2" transform="translate(186.21 213.38)">2<tspan class="cls-3" x="7.41" y="0">0</tspan><tspan class="cls-5" x="13.89" y="0">1</tspan><tspan x="20.32" y="0">9</tspan></text><text class="cls-6" transform="translate(142.97 11.47)">85 &amp; older</text><text class="cls-6" transform="translate(146.35 28.81)">75 <tspan class="cls-7" x="13.02" y="0">t</tspan><tspan x="15.26" y="0">o </tspan><tspan class="cls-8" x="22.87" y="0">8</tspan><tspan x="28.02" y="0">4</tspan></text><text class="cls-6" transform="translate(146.35 44.86)">65 <tspan class="cls-7" x="13.02" y="0">t</tspan><tspan x="15.26" y="0">o </tspan><tspan class="cls-9" x="22.87" y="0">7</tspan><tspan x="27.01" y="0">4</tspan></text><text class="cls-6" transform="translate(145.53 61.49)">55 <tspan class="cls-7" x="13.02" y="0">t</tspan><tspan x="15.26" y="0">o </tspan><tspan class="cls-10" x="22.87" y="0">6</tspan><tspan x="28.06" y="0">4</tspan></text><text class="cls-6" transform="translate(146.35 79.1)">45 <tspan class="cls-7" x="13.02" y="0">t</tspan><tspan x="15.26" y="0">o </tspan><tspan class="cls-11" x="22.87" y="0">5</tspan><tspan x="27.93" y="0">4</tspan></text><text class="cls-6" transform="translate(146.8 95.48)">35 <tspan class="cls-7" x="13.02" y="0">t</tspan><tspan x="15.26" y="0">o 44</tspan></text><text class="cls-6" transform="translate(146.57 112.5)">25 <tspan class="cls-7" x="13.02" y="0">t</tspan><tspan x="15.26" y="0">o </tspan><tspan class="cls-11" x="22.87" y="0">3</tspan><tspan x="27.93" y="0">4</tspan></text><text class="cls-12" transform="translate(146.57 128.04)">1<tspan class="cls-13" x="4.59" y="0">8 </tspan><tspan class="cls-7" x="12.35" y="0">t</tspan><tspan class="cls-13" x="14.58" y="0">o </tspan><tspan class="cls-14" x="22.19" y="0">2</tspan><tspan class="cls-13" x="27.4" y="0">4</tspan></text><text class="cls-15" transform="translate(146.57 144.74)">1<tspan class="cls-13" x="4.55" y="0">5 </tspan><tspan class="cls-7" x="12.31" y="0">t</tspan><tspan class="cls-13" x="14.55" y="0">o </tspan><tspan class="cls-16" x="22.16" y="0">1</tspan><tspan class="cls-13" x="26.59" y="0">7</tspan></text><text class="cls-6" transform="translate(149.27 178.93)">5 <tspan class="cls-17" x="7.76" y="0">t</tspan><tspan x="9.99" y="0">o 9</tspan></text><text class="cls-18" transform="translate(145.53 194.35)">U<tspan class="cls-13" x="6.42" y="0">nder 5</tspan></text><text class="cls-19" transform="translate(185.5 226.44)">T<tspan class="cls-20" x="4.06" y="0">o</tspan><tspan class="cls-21" x="9.8" y="0">t</tspan><tspan class="cls-22" x="12.31" y="0">al population: 39,682</tspan></text><text class="cls-19" transform="translate(37.36 224.84)">T<tspan class="cls-20" x="4.06" y="0">o</tspan><tspan class="cls-21" x="9.8" y="0">t</tspan><tspan class="cls-22" x="12.31" y="0">al population: 39,906</tspan></text><g class="cls-23"><path class="cls-24" d="M220.92,202.51V191.75H164.65v10.76Z" transform="translate(-32.33 -3.19)"/></g><g class="cls-25"><path class="cls-26" d="M173.29,200.56V189.9H117.56v10.66Z" transform="translate(-32.33 -3.19)"/></g><g class="cls-23"><path class="cls-24" d="M220.92,185.13V174.37h-27.3v10.76Z" transform="translate(-32.33 -3.19)"/></g><g class="cls-25"><path class="cls-26" d="M173.29,183.35V172.69h-27v10.66Z" transform="translate(-32.33 -3.19)"/></g><g class="cls-23"><path class="cls-24" d="M220.92,168.58V157.82H187v10.76Z" transform="translate(-32.33 -3.19)"/></g><g class="cls-25"><path class="cls-26" d="M173.29,167V156.3h-33.6V167Z" transform="translate(-32.33 -3.19)"/></g><g class="cls-23"><path class="cls-24" d="M220.92,152V141.27h-18.2V152Z" transform="translate(-32.33 -3.19)"/></g><g class="cls-25"><path class="cls-26" d="M173.29,150.56V139.91h-18v10.65Z" transform="translate(-32.33 -3.19)"/></g><g class="cls-23"><path class="cls-24" d="M220.92,134.65V123.89H168v10.76Z" transform="translate(-32.33 -3.19)"/></g><g class="cls-25"><path class="cls-26" d="M173.29,133.35V122.7H120.84v10.65Z" transform="translate(-32.33 -3.19)"/></g><g class="cls-23"><path class="cls-24" d="M220.92,118.1V107.34H78.59V118.1Z" transform="translate(-32.33 -3.19)"/></g><g class="cls-25"><path class="cls-26" d="M173.29,117V106.31h-141V117Z" transform="translate(-32.33 -3.19)"/></g><g class="cls-23"><path class="cls-24" d="M220.92,101.55V90.79H124.11v10.76Z" transform="translate(-32.33 -3.19)"/></g><g class="cls-25"><path class="cls-26" d="M173.29,100.57V89.92H77.41v10.65Z" transform="translate(-32.33 -3.19)"/></g><g class="cls-23"><path class="cls-24" d="M220.92,84.17V73.41h-110V84.17Z" transform="translate(-32.33 -3.19)"/></g><g class="cls-25"><path class="cls-26" d="M173.29,83.36V72.71h-109V83.36Z" transform="translate(-32.33 -3.19)"/></g><g class="cls-23"><path class="cls-24" d="M220.92,67.62V56.86H150.59V67.62Z" transform="translate(-32.33 -3.19)"/></g><g class="cls-25"><path class="cls-26" d="M173.29,67V56.32H103.63V67Z" transform="translate(-32.33 -3.19)"/></g><g class="cls-23"><path class="cls-24" d="M220.92,51.07V40.31H179.55V51.07Z" transform="translate(-32.33 -3.19)"/></g><g class="cls-25"><path class="cls-26" d="M173.29,50.58V39.93h-41V50.58Z" transform="translate(-32.33 -3.19)"/></g><g class="cls-23"><path class="cls-24" d="M220.92,33.69V22.94H191.13V33.69Z" transform="translate(-32.33 -3.19)"/></g><g class="cls-25"><path class="cls-26" d="M173.29,33.37V22.72h-29.5V33.37Z" transform="translate(-32.33 -3.19)"/></g><g class="cls-23"><path class="cls-24" d="M220.92,17.14V6.39H205.2V17.14Z" transform="translate(-32.33 -3.19)"/></g><g class="cls-25"><path class="cls-26" d="M173.29,17V6.32H157.72V17Z" transform="translate(-32.33 -3.19)"/></g><g class="cls-23"><path class="cls-24" d="M220.92,202.51V191.75h43.86a1.65,1.65,0,0,1,1.66,1.65v7.45a1.66,1.66,0,0,1-1.66,1.66Z" transform="translate(-32.33 -3.19)"/></g><g class="cls-23"><path class="cls-27" d="M220.92,202.51V191.75h43.86a1.65,1.65,0,0,1,1.66,1.65v7.45a1.66,1.66,0,0,1-1.66,1.66Z" transform="translate(-32.33 -3.19)"/></g><g class="cls-23"><path class="cls-24" d="M220.92,185.13V174.37h26.49a1.65,1.65,0,0,1,1.65,1.66v7.44a1.65,1.65,0,0,1-1.65,1.66Z" transform="translate(-32.33 -3.19)"/></g><g class="cls-23"><path class="cls-27" d="M220.92,185.13V174.37h26.49a1.65,1.65,0,0,1,1.65,1.66v7.44a1.65,1.65,0,0,1-1.65,1.66Z" transform="translate(-32.33 -3.19)"/></g><g class="cls-23"><path class="cls-24" d="M220.92,168.58V157.82h27.31a1.65,1.65,0,0,1,1.66,1.65v7.45a1.66,1.66,0,0,1-1.66,1.66Z" transform="translate(-32.33 -3.19)"/></g><g class="cls-23"><path class="cls-27" d="M220.92,168.58V157.82h27.31a1.65,1.65,0,0,1,1.66,1.65v7.45a1.66,1.66,0,0,1-1.66,1.66Z" transform="translate(-32.33 -3.19)"/></g><g class="cls-23"><path class="cls-24" d="M220.92,152V141.27H235a1.65,1.65,0,0,1,1.66,1.65v7.45A1.66,1.66,0,0,1,235,152Z" transform="translate(-32.33 -3.19)"/></g><g class="cls-23"><path class="cls-27" d="M220.92,152V141.27H235a1.65,1.65,0,0,1,1.66,1.65v7.45A1.66,1.66,0,0,1,235,152Z" transform="translate(-32.33 -3.19)"/></g><g class="cls-23"><path class="cls-24" d="M220.92,134.65V123.89h36.42a1.65,1.65,0,0,1,1.65,1.66V133a1.65,1.65,0,0,1-1.65,1.66Z" transform="translate(-32.33 -3.19)"/></g><g class="cls-23"><path class="cls-27" d="M220.92,134.65V123.89h36.42a1.65,1.65,0,0,1,1.65,1.66V133a1.65,1.65,0,0,1-1.65,1.66Z" transform="translate(-32.33 -3.19)"/></g><g class="cls-23"><path class="cls-24" d="M220.92,118.1V107.34H358.29A1.66,1.66,0,0,1,360,109v7.44a1.66,1.66,0,0,1-1.66,1.66Z" transform="translate(-32.33 -3.19)"/></g><g class="cls-23"><path class="cls-27" d="M220.92,118.1V107.34H358.29A1.66,1.66,0,0,1,360,109v7.44a1.66,1.66,0,0,1-1.66,1.66Z" transform="translate(-32.33 -3.19)"/></g><g class="cls-23"><path class="cls-24" d="M220.92,101.55V90.79H323.54a1.65,1.65,0,0,1,1.65,1.66v7.44a1.65,1.65,0,0,1-1.65,1.66Z" transform="translate(-32.33 -3.19)"/></g><g class="cls-23"><path class="cls-27" d="M220.92,101.55V90.79H323.54a1.65,1.65,0,0,1,1.65,1.66v7.44a1.65,1.65,0,0,1-1.65,1.66Z" transform="translate(-32.33 -3.19)"/></g><g class="cls-23"><path class="cls-24" d="M220.92,84.17V73.41H310.3A1.65,1.65,0,0,1,312,75.07v7.45a1.65,1.65,0,0,1-1.65,1.65Z" transform="translate(-32.33 -3.19)"/></g><g class="cls-23"><path class="cls-27" d="M220.92,84.17V73.41H310.3A1.65,1.65,0,0,1,312,75.07v7.45a1.65,1.65,0,0,1-1.65,1.65Z" transform="translate(-32.33 -3.19)"/></g><g class="cls-23"><path class="cls-24" d="M220.92,67.62V56.86H325.19a1.66,1.66,0,0,1,1.66,1.66V66a1.65,1.65,0,0,1-1.66,1.65Z" transform="translate(-32.33 -3.19)"/></g><g class="cls-23"><path class="cls-27" d="M220.92,67.62V56.86H325.19a1.66,1.66,0,0,1,1.66,1.66V66a1.65,1.65,0,0,1-1.66,1.65Z" transform="translate(-32.33 -3.19)"/></g><g class="cls-23"><path class="cls-24" d="M220.92,51.07V40.31h59.59A1.65,1.65,0,0,1,282.16,42v7.45a1.65,1.65,0,0,1-1.65,1.65Z" transform="translate(-32.33 -3.19)"/></g><g class="cls-23"><path class="cls-27" d="M220.92,51.07V40.31h59.59A1.65,1.65,0,0,1,282.16,42v7.45a1.65,1.65,0,0,1-1.65,1.65Z" transform="translate(-32.33 -3.19)"/></g><g class="cls-23"><path class="cls-24" d="M220.92,33.69V22.94h29.8a1.65,1.65,0,0,1,1.65,1.65V32a1.65,1.65,0,0,1-1.65,1.65Z" transform="translate(-32.33 -3.19)"/></g><g class="cls-23"><path class="cls-27" d="M220.92,33.69V22.94h29.8a1.65,1.65,0,0,1,1.65,1.65V32a1.65,1.65,0,0,1-1.65,1.65Z" transform="translate(-32.33 -3.19)"/></g><g class="cls-23"><path class="cls-24" d="M220.92,17.14V6.39h10.76A1.65,1.65,0,0,1,233.34,8v7.45a1.65,1.65,0,0,1-1.66,1.65Z" transform="translate(-32.33 -3.19)"/></g><g class="cls-23"><path class="cls-27" d="M220.92,17.14V6.39h10.76A1.65,1.65,0,0,1,233.34,8v7.45a1.65,1.65,0,0,1-1.66,1.65Z" transform="translate(-32.33 -3.19)"/></g><rect class="cls-28" x="199.55" width="2.26" height="16.49"/><rect class="cls-28" x="218.55" y="17" width="2.26" height="16.49"/><rect class="cls-28" x="248.55" y="34" width="2.26" height="16.49"/><rect class="cls-28" x="293.55" y="51" width="2.26" height="16.49"/><rect class="cls-28" x="278.55" y="68" width="2.26" height="16.49"/><rect class="cls-28" x="291.55" y="84" width="2.26" height="16.49"/><rect class="cls-28" x="225.55" y="120" width="2.26" height="16.49"/><rect class="cls-28" x="203.55" y="135" width="2.26" height="16.49"/><rect class="cls-28" x="216.55" y="150" width="2.26" height="16.49"/><rect class="cls-28" x="215.55" y="168" width="2.26" height="16.49"/><rect class="cls-28" x="232.55" y="184" width="2.26" height="16.49"/><text class="cls-29" transform="translate(147.18 162.45)">1<tspan class="cls-13" x="4.73" y="0">0 </tspan><tspan class="cls-7" x="12.48" y="0">t</tspan><tspan class="cls-13" x="14.72" y="0">o </tspan><tspan class="cls-30" x="22.33" y="0">1</tspan><tspan class="cls-13" x="26.88" y="0">4</tspan></text></g></g></svg>