<svg xmlns="http://www.w3.org/2000/svg" xmlns:xlink="http://www.w3.org/1999/xlink" viewBox="0 0 300.97 237.75"><defs><style>.cls-1,.cls-28{fill:none;}.cls-2{font-size:12px;}.cls-12,.cls-15,.cls-18,.cls-19,.cls-2,.cls-30,.cls-6{fill:#231f20;font-family:Futura-Medium, Futura;font-weight:500;}.cls-3{letter-spacing:-0.08em;}.cls-4{letter-spacing:-0.06em;}.cls-5{letter-spacing:-0.08em;}.cls-12,.cls-15,.cls-18,.cls-30,.cls-6{font-size:9px;}.cls-13,.cls-6{letter-spacing:-0.03em;}.cls-18,.cls-7{letter-spacing:-0.03em;}.cls-8{letter-spacing:-0.04em;}.cls-9{letter-spacing:-0.16em;}.cls-10{letter-spacing:-0.04em;}.cls-11{letter-spacing:-0.05em;}.cls-12{letter-spacing:-0.11em;}.cls-14{letter-spacing:-0.04em;}.cls-15,.cls-31{letter-spacing:-0.11em;}.cls-16{letter-spacing:-0.12em;}.cls-17{letter-spacing:-0.03em;}.cls-19{font-size:10px;letter-spacing:-0.08em;}.cls-20{letter-spacing:-0.03em;}.cls-21{letter-spacing:-0.02em;}.cls-22{letter-spacing:-0.03em;}.cls-23{letter-spacing:-0.11em;}.cls-24{letter-spacing:-0.12em;}.cls-25{letter-spacing:-0.12em;}.cls-26{letter-spacing:-0.03em;}.cls-27{clip-path:url(#clip-path);}.cls-28{stroke:#010101;stroke-miterlimit:10;stroke-opacity:0;stroke-width:2px;}.cls-29{fill:#fff;}.cls-30{letter-spacing:-0.09em;}.cls-32{clip-path:url(#clip-path-24);}.cls-33{fill:#207b8d;}.cls-34{clip-path:url(#clip-path-36);}.cls-35{fill:#b83350;}</style><clipPath id="clip-path" transform="translate(-14.03 -3.5)"><rect class="cls-1" y="0.31" width="350.78" height="207.84"/></clipPath><clipPath id="clip-path-24" transform="translate(-14.03 -3.5)"><rect class="cls-1" x="57.83" y="1.54" width="208.2" height="204.34"/></clipPath><clipPath id="clip-path-36" transform="translate(-14.03 -3.5)"><rect class="cls-1" x="104.08" width="210.2" height="206.3"/></clipPath></defs><g id="Layer_2" data-name="Layer 2"><g id="Layer_1-2" data-name="Layer 1"><text class="cls-2" transform="translate(87.46 213.38)">2<tspan class="cls-3" x="7.41" y="0">0</tspan><tspan class="cls-4" x="13.89" y="0">1</tspan><tspan x="20.57" y="0">0</tspan></text><text class="cls-2" transform="translate(158.57 213.38)">2<tspan class="cls-3" x="7.41" y="0">0</tspan><tspan class="cls-5" x="13.89" y="0">1</tspan><tspan x="20.32" y="0">9</tspan></text><text class="cls-6" transform="translate(115.32 11.47)">85 &amp; older</text><text class="cls-6" transform="translate(118.7 28.81)">75 <tspan class="cls-7" x="13.02" y="0">t</tspan><tspan x="15.26" y="0">o </tspan><tspan class="cls-8" x="22.87" y="0">8</tspan><tspan x="28.02" y="0">4</tspan></text><text class="cls-6" transform="translate(118.7 44.86)">65 <tspan class="cls-7" x="13.02" y="0">t</tspan><tspan x="15.26" y="0">o </tspan><tspan class="cls-9" x="22.87" y="0">7</tspan><tspan x="27.01" y="0">4</tspan></text><text class="cls-6" transform="translate(117.89 61.49)">55 <tspan class="cls-7" x="13.02" y="0">t</tspan><tspan x="15.26" y="0">o </tspan><tspan class="cls-10" x="22.87" y="0">6</tspan><tspan x="28.06" y="0">4</tspan></text><text class="cls-6" transform="translate(118.7 79.1)">45 <tspan class="cls-7" x="13.02" y="0">t</tspan><tspan x="15.26" y="0">o </tspan><tspan class="cls-11" x="22.87" y="0">5</tspan><tspan x="27.93" y="0">4</tspan></text><text class="cls-6" transform="translate(119.16 95.48)">35 <tspan class="cls-7" x="13.02" y="0">t</tspan><tspan x="15.26" y="0">o 44</tspan></text><text class="cls-6" transform="translate(118.93 112.5)">25 <tspan class="cls-7" x="13.02" y="0">t</tspan><tspan x="15.26" y="0">o </tspan><tspan class="cls-11" x="22.87" y="0">3</tspan><tspan x="27.93" y="0">4</tspan></text><text class="cls-12" transform="translate(118.93 128.04)">1<tspan class="cls-13" x="4.59" y="0">8 </tspan><tspan class="cls-7" x="12.35" y="0">t</tspan><tspan class="cls-13" x="14.58" y="0">o </tspan><tspan class="cls-14" x="22.19" y="0">2</tspan><tspan class="cls-13" x="27.4" y="0">4</tspan></text><text class="cls-15" transform="translate(118.93 144.74)">1<tspan class="cls-13" x="4.55" y="0">5 </tspan><tspan class="cls-7" x="12.31" y="0">t</tspan><tspan class="cls-13" x="14.55" y="0">o </tspan><tspan class="cls-16" x="22.16" y="0">1</tspan><tspan class="cls-13" x="26.59" y="0">7</tspan></text><text class="cls-6" transform="translate(121.63 178.93)">5 <tspan class="cls-17" x="7.76" y="0">t</tspan><tspan x="9.99" y="0">o 9</tspan></text><text class="cls-18" transform="translate(117.89 194.35)">U<tspan class="cls-13" x="6.42" y="0">nder 5</tspan></text><text class="cls-19" transform="translate(157.86 226.44)">T<tspan class="cls-20" x="4.06" y="0">o</tspan><tspan class="cls-21" x="9.8" y="0">t</tspan><tspan class="cls-22" x="12.31" y="0">al population: </tspan><tspan class="cls-23" x="73.91" y="0">1</tspan><tspan class="cls-22" x="78.95" y="0">9,</tspan><tspan class="cls-24" x="87.57" y="0">2</tspan><tspan class="cls-25" x="92.58" y="0">1</tspan><tspan class="cls-26" x="97.55" y="0">6</tspan></text><text class="cls-19" transform="translate(15.57 224.84)">T<tspan class="cls-20" x="4.06" y="0">o</tspan><tspan class="cls-21" x="9.8" y="0">t</tspan><tspan class="cls-22" x="12.31" y="0">al population: 9,600</tspan></text><g class="cls-27"><path class="cls-28" d="M175,202.81V192.06H118.71v10.75Z" transform="translate(-14.03 -3.5)"/></g><g class="cls-27"><path class="cls-28" d="M175,185.43V174.68H147.67v10.75Z" transform="translate(-14.03 -3.5)"/></g><g class="cls-27"><path class="cls-28" d="M175,168.88V158.13H141.05v10.75Z" transform="translate(-14.03 -3.5)"/></g><g class="cls-27"><path class="cls-28" d="M175,152.33V141.58H156.77v10.75Z" transform="translate(-14.03 -3.5)"/></g><g class="cls-27"><path class="cls-28" d="M175,135V124.2H122V135Z" transform="translate(-14.03 -3.5)"/></g><g class="cls-27"><path class="cls-28" d="M175,118.41V107.65H32.65v10.76Z" transform="translate(-14.03 -3.5)"/></g><g class="cls-27"><path class="cls-28" d="M175,101.86V91.1H78.16v10.76Z" transform="translate(-14.03 -3.5)"/></g><g class="cls-27"><path class="cls-28" d="M175,84.48V73.72H64.92V84.48Z" transform="translate(-14.03 -3.5)"/></g><g class="cls-27"><path class="cls-28" d="M175,67.93V57.17H104.64V67.93Z" transform="translate(-14.03 -3.5)"/></g><g class="cls-27"><path class="cls-28" d="M175,51.38V40.62H133.6V51.38Z" transform="translate(-14.03 -3.5)"/></g><g class="cls-27"><path class="cls-28" d="M175,34V23.24H145.19V34Z" transform="translate(-14.03 -3.5)"/></g><g class="cls-27"><path class="cls-28" d="M175,17.45V6.69H159.25V17.45Z" transform="translate(-14.03 -3.5)"/></g><g class="cls-27"><path class="cls-28" d="M175,202.81V192.06h43.85a1.65,1.65,0,0,1,1.66,1.65v7.45a1.65,1.65,0,0,1-1.66,1.65Z" transform="translate(-14.03 -3.5)"/></g><g class="cls-27"><path class="cls-28" d="M175,185.43V174.68h26.48a1.65,1.65,0,0,1,1.65,1.65v7.45a1.65,1.65,0,0,1-1.65,1.65Z" transform="translate(-14.03 -3.5)"/></g><g class="cls-27"><path class="cls-28" d="M175,168.88V158.13h27.3a1.65,1.65,0,0,1,1.66,1.65v7.45a1.65,1.65,0,0,1-1.66,1.65Z" transform="translate(-14.03 -3.5)"/></g><g class="cls-27"><path class="cls-28" d="M175,152.33V141.58H189a1.65,1.65,0,0,1,1.66,1.65v7.45a1.65,1.65,0,0,1-1.66,1.65Z" transform="translate(-14.03 -3.5)"/></g><g class="cls-27"><path class="cls-28" d="M175,135V124.2h36.41a1.65,1.65,0,0,1,1.65,1.65v7.45a1.65,1.65,0,0,1-1.65,1.66Z" transform="translate(-14.03 -3.5)"/></g><g class="cls-27"><path class="cls-28" d="M175,118.41V107.65H312.34A1.65,1.65,0,0,1,314,109.3v7.45a1.66,1.66,0,0,1-1.66,1.66Z" transform="translate(-14.03 -3.5)"/></g><g class="cls-27"><path class="cls-28" d="M175,84.48V73.72h89.37A1.65,1.65,0,0,1,266,75.38v7.44a1.65,1.65,0,0,1-1.65,1.66Z" transform="translate(-14.03 -3.5)"/></g><g class="cls-27"><path class="cls-28" d="M175,67.93V57.17H279.24a1.66,1.66,0,0,1,1.66,1.66v7.44a1.66,1.66,0,0,1-1.66,1.66Z" transform="translate(-14.03 -3.5)"/></g><g class="cls-27"><path class="cls-28" d="M175,51.38V40.62h59.58a1.65,1.65,0,0,1,1.65,1.66v7.44a1.65,1.65,0,0,1-1.65,1.66Z" transform="translate(-14.03 -3.5)"/></g><g class="cls-27"><path class="cls-28" d="M175,34V23.24h29.79a1.65,1.65,0,0,1,1.65,1.66v7.45A1.65,1.65,0,0,1,204.77,34Z" transform="translate(-14.03 -3.5)"/></g><g class="cls-27"><path class="cls-28" d="M175,17.45V6.69h10.75a1.66,1.66,0,0,1,1.66,1.66V15.8a1.65,1.65,0,0,1-1.66,1.65Z" transform="translate(-14.03 -3.5)"/></g><rect class="cls-29" x="171.91" width="2.26" height="16.49"/><rect class="cls-29" x="190.91" y="17" width="2.26" height="16.49"/><rect class="cls-29" x="220.91" y="34" width="2.26" height="16.49"/><rect class="cls-29" x="265.91" y="51" width="2.26" height="16.49"/><rect class="cls-29" x="250.91" y="68" width="2.26" height="16.49"/><rect class="cls-29" x="263.91" y="84" width="2.26" height="16.49"/><rect class="cls-29" x="197.91" y="120" width="2.26" height="16.49"/><rect class="cls-29" x="175.91" y="135" width="2.26" height="16.49"/><rect class="cls-29" x="188.91" y="150" width="2.26" height="16.49"/><rect class="cls-29" x="187.91" y="168" width="2.26" height="16.49"/><rect class="cls-29" x="204.91" y="184" width="2.26" height="16.49"/><text class="cls-30" transform="translate(119.54 162.45)">1<tspan class="cls-13" x="4.73" y="0">0 </tspan><tspan class="cls-7" x="12.48" y="0">t</tspan><tspan class="cls-13" x="14.72" y="0">o </tspan><tspan class="cls-31" x="22.33" y="0">1</tspan><tspan class="cls-13" x="26.88" y="0">4</tspan></text><g class="cls-32"><path class="cls-33" d="M127,200.25v-11H103.87v11Z" transform="translate(-14.03 -3.5)"/></g><g class="cls-32"><path class="cls-33" d="M127,183.8v-11H103.87v11Z" transform="translate(-14.03 -3.5)"/></g><g class="cls-32"><path class="cls-33" d="M127,167.36v-11H99v11Z" transform="translate(-14.03 -3.5)"/></g><g class="cls-32"><path class="cls-33" d="M127,150.3v-11H111.18v11Z" transform="translate(-14.03 -3.5)"/></g><g class="cls-32"><path class="cls-33" d="M127,133.86v-11H92.91v11Z" transform="translate(-14.03 -3.5)"/></g><g class="cls-32"><path class="cls-33" d="M127,117.41v-11H79.51v11Z" transform="translate(-14.03 -3.5)"/></g><g class="cls-32"><path class="cls-33" d="M127,101V90H84.38v11Z" transform="translate(-14.03 -3.5)"/></g><g class="cls-32"><path class="cls-33" d="M127,84.53v-11H79.51v11Z" transform="translate(-14.03 -3.5)"/></g><g class="cls-32"><path class="cls-33" d="M127,68.08v-11H97.17v11Z" transform="translate(-14.03 -3.5)"/></g><g class="cls-32"><path class="cls-33" d="M127,51v-11H108.14V51Z" transform="translate(-14.03 -3.5)"/></g><g class="cls-32"><path class="cls-33" d="M127,34.58v-11H111.18v11Z" transform="translate(-14.03 -3.5)"/></g><g class="cls-32"><path class="cls-33" d="M127,18.14v-11h-3.66v11Z" transform="translate(-14.03 -3.5)"/></g><g class="cls-34"><path class="cls-35" d="M173.92,200.61V189.54h40a1.24,1.24,0,0,1,1.23,1.23v8.61a1.23,1.23,0,0,1-1.23,1.23Z" transform="translate(-14.03 -3.5)"/></g><g class="cls-34"><path class="cls-35" d="M173.92,184V172.94h30.13a1.23,1.23,0,0,1,1.23,1.23v8.61a1.23,1.23,0,0,1-1.23,1.23Z" transform="translate(-14.03 -3.5)"/></g><g class="cls-34"><path class="cls-35" d="M173.92,167.41V156.34h48a1.24,1.24,0,0,1,1.23,1.23v8.61a1.24,1.24,0,0,1-1.23,1.23Z" transform="translate(-14.03 -3.5)"/></g><g class="cls-34"><path class="cls-35" d="M173.92,150.19V139.12h28.29a1.23,1.23,0,0,1,1.23,1.23V149a1.23,1.23,0,0,1-1.23,1.23Z" transform="translate(-14.03 -3.5)"/></g><g class="cls-34"><path class="cls-35" d="M173.92,133.59V122.52h67a1.23,1.23,0,0,1,1.23,1.23v8.61a1.23,1.23,0,0,1-1.23,1.23Z" transform="translate(-14.03 -3.5)"/></g><g class="cls-34"><path class="cls-35" d="M173.92,117V105.92h107a1.23,1.23,0,0,1,1.23,1.23v8.61a1.23,1.23,0,0,1-1.23,1.23Z" transform="translate(-14.03 -3.5)"/></g><g class="cls-34"><path class="cls-35" d="M173.92,100.38V89.31H247.1a1.24,1.24,0,0,1,1.23,1.23v8.61a1.23,1.23,0,0,1-1.23,1.23Z" transform="translate(-14.03 -3.5)"/></g><g class="cls-34"><path class="cls-35" d="M173.92,83.78V72.71H252a1.23,1.23,0,0,1,1.23,1.23v8.61A1.23,1.23,0,0,1,252,83.78Z" transform="translate(-14.03 -3.5)"/></g><g class="cls-34"><path class="cls-35" d="M173.92,67.18V56.11h91a1.23,1.23,0,0,1,1.23,1.23V66a1.23,1.23,0,0,1-1.23,1.23Z" transform="translate(-14.03 -3.5)"/></g><g class="cls-34"><path class="cls-35" d="M173.92,50V38.89H226.8A1.23,1.23,0,0,1,228,40.12v8.61A1.23,1.23,0,0,1,226.8,50Z" transform="translate(-14.03 -3.5)"/></g><g class="cls-34"><path class="cls-35" d="M173.92,33.36V22.29h32.59a1.23,1.23,0,0,1,1.23,1.23v8.61a1.23,1.23,0,0,1-1.23,1.23Z" transform="translate(-14.03 -3.5)"/></g><g class="cls-34"><path class="cls-35" d="M173.92,16.76V5.69h13.53a1.23,1.23,0,0,1,1.23,1.23v8.61a1.23,1.23,0,0,1-1.23,1.23Z" transform="translate(-14.03 -3.5)"/></g><rect class="cls-29" x="174.13" y="0.67" width="4.41" height="16.12"/><rect class="cls-29" x="192.84" y="16.49" width="4.41" height="16.12"/><rect class="cls-29" x="212.98" y="33.14" width="4.41" height="16.12"/><rect class="cls-29" x="251.56" y="48.14" width="4.41" height="16.12"/><rect class="cls-29" x="238.22" y="66.88" width="4.41" height="16.12"/><rect class="cls-29" x="233.02" y="83" width="4.41" height="16.12"/><rect class="cls-29" x="267.12" y="100.55" width="4.41" height="16.12"/><rect class="cls-29" x="226.82" y="116.49" width="4.41" height="16.12"/><rect class="cls-29" x="188.59" y="132.99" width="4.41" height="16.12"/><rect class="cls-29" x="207.98" y="150.19" width="4.41" height="16.12"/><rect class="cls-29" x="190.83" y="167.3" width="4.41" height="16.12"/><rect class="cls-29" x="200.22" y="182.31" width="4.41" height="16.12"/></g></g></svg>