<svg xmlns="http://www.w3.org/2000/svg" xmlns:xlink="http://www.w3.org/1999/xlink" viewBox="0 0 373.93 240.28"><defs><style>.cls-1,.cls-28{fill:none;}.cls-2{font-size:12px;}.cls-12,.cls-15,.cls-18,.cls-19,.cls-2,.cls-34,.cls-6{fill:#231f20;font-family:Futura-Medium, Futura;font-weight:500;}.cls-3{letter-spacing:-0.08em;}.cls-4{letter-spacing:-0.06em;}.cls-5{letter-spacing:-0.08em;}.cls-12,.cls-15,.cls-18,.cls-34,.cls-6{font-size:9px;}.cls-13,.cls-6{letter-spacing:-0.03em;}.cls-18,.cls-7{letter-spacing:-0.03em;}.cls-8{letter-spacing:-0.04em;}.cls-9{letter-spacing:-0.16em;}.cls-10{letter-spacing:-0.04em;}.cls-11{letter-spacing:-0.05em;}.cls-12{letter-spacing:-0.11em;}.cls-14{letter-spacing:-0.04em;}.cls-15,.cls-35{letter-spacing:-0.11em;}.cls-16{letter-spacing:-0.12em;}.cls-17{letter-spacing:-0.03em;}.cls-19{font-size:10px;letter-spacing:-0.08em;}.cls-20{letter-spacing:-0.03em;}.cls-21{letter-spacing:-0.02em;}.cls-22{letter-spacing:-0.03em;}.cls-23{letter-spacing:-0.12em;}.cls-24{letter-spacing:-0.16em;}.cls-25{letter-spacing:-0.03em;}.cls-26{letter-spacing:-0.06em;}.cls-27{clip-path:url(#clip-path);}.cls-28{stroke:#010101;stroke-miterlimit:10;stroke-opacity:0;stroke-width:2px;}.cls-29{clip-path:url(#clip-path-2);}.cls-30{fill:#207b8d;}.cls-31{clip-path:url(#clip-path-26);}.cls-32{fill:#b83350;}.cls-33{fill:#fff;}.cls-34{letter-spacing:-0.09em;}</style><clipPath id="clip-path" transform="translate(-4.52 -2.1)"><rect class="cls-1" x="53" width="344.3" height="209.14"/></clipPath><clipPath id="clip-path-2" transform="translate(-4.52 -2.1)"><rect class="cls-1" y="0.89" width="351.39" height="208.2"/></clipPath><clipPath id="clip-path-26" transform="translate(-4.52 -2.1)"><rect class="cls-1" x="54" y="1.01" width="339.34" height="206.13"/></clipPath></defs><g id="Layer_2" data-name="Layer 2"><g id="Layer_1-2" data-name="Layer 1"><text class="cls-2" transform="translate(145.46 215.91)">2<tspan class="cls-3" x="7.41" y="0">0</tspan><tspan class="cls-4" x="13.89" y="0">1</tspan><tspan x="20.57" y="0">0</tspan></text><text class="cls-2" transform="translate(216.57 215.91)">2<tspan class="cls-3" x="7.41" y="0">0</tspan><tspan class="cls-5" x="13.89" y="0">1</tspan><tspan x="20.32" y="0">9</tspan></text><text class="cls-6" transform="translate(173.33 14)">85 &amp; older</text><text class="cls-6" transform="translate(176.71 31.34)">75 <tspan class="cls-7" x="13.02" y="0">t</tspan><tspan x="15.26" y="0">o </tspan><tspan class="cls-8" x="22.87" y="0">8</tspan><tspan x="28.02" y="0">4</tspan></text><text class="cls-6" transform="translate(176.71 47.39)">65 <tspan class="cls-7" x="13.02" y="0">t</tspan><tspan x="15.26" y="0">o </tspan><tspan class="cls-9" x="22.87" y="0">7</tspan><tspan x="27.01" y="0">4</tspan></text><text class="cls-6" transform="translate(175.89 64.02)">55 <tspan class="cls-7" x="13.02" y="0">t</tspan><tspan x="15.26" y="0">o </tspan><tspan class="cls-10" x="22.87" y="0">6</tspan><tspan x="28.06" y="0">4</tspan></text><text class="cls-6" transform="translate(176.71 81.63)">45 <tspan class="cls-7" x="13.02" y="0">t</tspan><tspan x="15.26" y="0">o </tspan><tspan class="cls-11" x="22.87" y="0">5</tspan><tspan x="27.93" y="0">4</tspan></text><text class="cls-6" transform="translate(177.16 98.01)">35 <tspan class="cls-7" x="13.02" y="0">t</tspan><tspan x="15.26" y="0">o 44</tspan></text><text class="cls-6" transform="translate(176.94 115.03)">25 <tspan class="cls-7" x="13.02" y="0">t</tspan><tspan x="15.26" y="0">o </tspan><tspan class="cls-11" x="22.87" y="0">3</tspan><tspan x="27.93" y="0">4</tspan></text><text class="cls-12" transform="translate(176.94 130.57)">1<tspan class="cls-13" x="4.59" y="0">8 </tspan><tspan class="cls-7" x="12.35" y="0">t</tspan><tspan class="cls-13" x="14.58" y="0">o </tspan><tspan class="cls-14" x="22.19" y="0">2</tspan><tspan class="cls-13" x="27.4" y="0">4</tspan></text><text class="cls-15" transform="translate(176.94 147.27)">1<tspan class="cls-13" x="4.55" y="0">5 </tspan><tspan class="cls-7" x="12.31" y="0">t</tspan><tspan class="cls-13" x="14.55" y="0">o </tspan><tspan class="cls-16" x="22.16" y="0">1</tspan><tspan class="cls-13" x="26.59" y="0">7</tspan></text><text class="cls-6" transform="translate(179.63 181.46)">5 <tspan class="cls-17" x="7.76" y="0">t</tspan><tspan x="9.99" y="0">o 9</tspan></text><text class="cls-18" transform="translate(175.89 196.88)">U<tspan class="cls-13" x="6.42" y="0">nder 5</tspan></text><text class="cls-19" transform="translate(215.86 228.97)">T<tspan class="cls-20" x="4.06" y="0">o</tspan><tspan class="cls-21" x="9.8" y="0">t</tspan><tspan class="cls-22" x="12.31" y="0">al population: 45,</tspan><tspan class="cls-23" x="88.38" y="0">9</tspan><tspan class="cls-22" x="93.37" y="0">42</tspan></text><text class="cls-19" transform="translate(69.31 227.37)">T<tspan class="cls-20" x="4.06" y="0">o</tspan><tspan class="cls-21" x="9.8" y="0">t</tspan><tspan class="cls-22" x="12.31" y="0">al population: 4</tspan><tspan class="cls-24" x="79.76" y="0">7</tspan><tspan class="cls-25" x="84.33" y="0">,</tspan><tspan class="cls-26" x="87.1" y="0">5</tspan><tspan class="cls-22" x="92.64" y="0">79</tspan></text><g class="cls-27"><path class="cls-28" d="M224.75,203.77V193H149.21v10.82Z" transform="translate(-4.52 -2.1)"/></g><g class="cls-29"><path class="cls-30" d="M175.28,203.74V193H98.19v10.77Z" transform="translate(-4.52 -2.1)"/></g><g class="cls-27"><path class="cls-28" d="M224.75,186.28V175.46H176v10.82Z" transform="translate(-4.52 -2.1)"/></g><g class="cls-29"><path class="cls-30" d="M175.28,186.33V175.56H125.54v10.77Z" transform="translate(-4.52 -2.1)"/></g><g class="cls-27"><path class="cls-28" d="M224.75,169.63V158.81H175.2v10.82Z" transform="translate(-4.52 -2.1)"/></g><g class="cls-29"><path class="cls-30" d="M175.28,169.76V159H124.71v10.78Z" transform="translate(-4.52 -2.1)"/></g><g class="cls-27"><path class="cls-28" d="M224.75,153V142.15H189V153Z" transform="translate(-4.52 -2.1)"/></g><g class="cls-29"><path class="cls-30" d="M175.28,153.18V142.4H138.81v10.78Z" transform="translate(-4.52 -2.1)"/></g><g class="cls-27"><path class="cls-28" d="M224.75,135.49V124.67H128.09v10.82Z" transform="translate(-4.52 -2.1)"/></g><g class="cls-29"><path class="cls-30" d="M175.28,135.77V125H76.64v10.78Z" transform="translate(-4.52 -2.1)"/></g><g class="cls-27"><path class="cls-28" d="M224.75,118.84V108H57.43v10.83Z" transform="translate(-4.52 -2.1)"/></g><g class="cls-29"><path class="cls-30" d="M175.28,119.19V108.41H4.52v10.78Z" transform="translate(-4.52 -2.1)"/></g><g class="cls-27"><path class="cls-28" d="M224.75,102.18V91.36H96.41v10.82Z" transform="translate(-4.52 -2.1)"/></g><g class="cls-29"><path class="cls-30" d="M175.28,102.61V91.83h-131v10.78Z" transform="translate(-4.52 -2.1)"/></g><g class="cls-27"><path class="cls-28" d="M224.75,84.7V73.87H71.23V84.7Z" transform="translate(-4.52 -2.1)"/></g><g class="cls-29"><path class="cls-30" d="M175.28,85.2V74.43H18.61V85.2Z" transform="translate(-4.52 -2.1)"/></g><g class="cls-27"><path class="cls-28" d="M224.75,68V57.22H127.28V68Z" transform="translate(-4.52 -2.1)"/></g><g class="cls-29"><path class="cls-30" d="M175.28,68.62V57.85H75.81V68.62Z" transform="translate(-4.52 -2.1)"/></g><g class="cls-27"><path class="cls-28" d="M224.75,51.39V40.57H177.64V51.39Z" transform="translate(-4.52 -2.1)"/></g><g class="cls-29"><path class="cls-30" d="M175.28,52.05V41.27H127.2V52.05Z" transform="translate(-4.52 -2.1)"/></g><g class="cls-27"><path class="cls-28" d="M224.75,33.9V23.08H189.82V33.9Z" transform="translate(-4.52 -2.1)"/></g><g class="cls-29"><path class="cls-30" d="M175.28,34.64V23.86H139.64V34.64Z" transform="translate(-4.52 -2.1)"/></g><g class="cls-27"><path class="cls-28" d="M224.75,17.25V6.43H204.44V17.25Z" transform="translate(-4.52 -2.1)"/></g><g class="cls-29"><path class="cls-30" d="M175.28,18.06V7.28H154.56V18.06Z" transform="translate(-4.52 -2.1)"/></g><g class="cls-27"><path class="cls-28" d="M224.75,203.77V193h65a1.64,1.64,0,0,1,1.63,1.66v7.49a1.65,1.65,0,0,1-1.63,1.67Z" transform="translate(-4.52 -2.1)"/></g><g class="cls-31"><path class="cls-32" d="M223.27,201.85V191.18h64a1.61,1.61,0,0,1,1.6,1.64v7.39a1.62,1.62,0,0,1-1.6,1.64Z" transform="translate(-4.52 -2.1)"/></g><g class="cls-27"><path class="cls-28" d="M224.75,186.28V175.46h57.66a1.64,1.64,0,0,1,1.63,1.66v7.5a1.64,1.64,0,0,1-1.63,1.66Z" transform="translate(-4.52 -2.1)"/></g><g class="cls-31"><path class="cls-32" d="M223.27,184.61V173.94h56.84a1.63,1.63,0,0,1,1.6,1.65V183a1.62,1.62,0,0,1-1.6,1.64Z" transform="translate(-4.52 -2.1)"/></g><g class="cls-27"><path class="cls-28" d="M224.75,169.63V158.81h77.16a1.64,1.64,0,0,1,1.62,1.66V168a1.65,1.65,0,0,1-1.62,1.66Z" transform="translate(-4.52 -2.1)"/></g><g class="cls-31"><path class="cls-32" d="M223.27,168.2V157.53h76a1.63,1.63,0,0,1,1.6,1.64v7.39a1.63,1.63,0,0,1-1.6,1.64Z" transform="translate(-4.52 -2.1)"/></g><g class="cls-27"><path class="cls-28" d="M224.75,153V142.15h30.86a1.64,1.64,0,0,1,1.62,1.67v7.49a1.64,1.64,0,0,1-1.62,1.67Z" transform="translate(-4.52 -2.1)"/></g><g class="cls-31"><path class="cls-32" d="M223.27,151.79V141.12h30.42a1.62,1.62,0,0,1,1.6,1.64v7.38a1.63,1.63,0,0,1-1.6,1.65Z" transform="translate(-4.52 -2.1)"/></g><g class="cls-27"><path class="cls-28" d="M224.75,135.49V124.67h75.53a1.64,1.64,0,0,1,1.63,1.66v7.5a1.64,1.64,0,0,1-1.63,1.66Z" transform="translate(-4.52 -2.1)"/></g><g class="cls-31"><path class="cls-32" d="M223.27,134.55V123.88h74.45a1.63,1.63,0,0,1,1.6,1.64v7.39a1.62,1.62,0,0,1-1.6,1.64Z" transform="translate(-4.52 -2.1)"/></g><g class="cls-27"><path class="cls-28" d="M224.75,118.84V108H375.82a1.64,1.64,0,0,1,1.62,1.67v7.49a1.64,1.64,0,0,1-1.62,1.67Z" transform="translate(-4.52 -2.1)"/></g><g class="cls-31"><path class="cls-32" d="M223.27,118.14V107.47h148.9a1.62,1.62,0,0,1,1.6,1.64v7.39a1.63,1.63,0,0,1-1.6,1.64Z" transform="translate(-4.52 -2.1)"/></g><g class="cls-27"><path class="cls-28" d="M224.75,102.18V91.36H369.32A1.64,1.64,0,0,1,371,93v7.5a1.64,1.64,0,0,1-1.63,1.66Z" transform="translate(-4.52 -2.1)"/></g><g class="cls-31"><path class="cls-32" d="M223.27,101.72V91.06H365.76a1.61,1.61,0,0,1,1.6,1.64v7.38a1.61,1.61,0,0,1-1.6,1.64Z" transform="translate(-4.52 -2.1)"/></g><g class="cls-27"><path class="cls-28" d="M224.75,84.7V73.87H344.14a1.65,1.65,0,0,1,1.63,1.67V83a1.65,1.65,0,0,1-1.63,1.67Z" transform="translate(-4.52 -2.1)"/></g><g class="cls-31"><path class="cls-32" d="M223.27,84.49V73.82H341a1.63,1.63,0,0,1,1.6,1.64v7.39a1.62,1.62,0,0,1-1.6,1.64Z" transform="translate(-4.52 -2.1)"/></g><g class="cls-27"><path class="cls-28" d="M224.75,68V57.22H359.57a1.64,1.64,0,0,1,1.63,1.66v7.5A1.64,1.64,0,0,1,359.57,68Z" transform="translate(-4.52 -2.1)"/></g><g class="cls-31"><path class="cls-32" d="M223.27,68.08V57.41H356.16a1.62,1.62,0,0,1,1.6,1.64v7.39a1.63,1.63,0,0,1-1.6,1.64Z" transform="translate(-4.52 -2.1)"/></g><g class="cls-27"><path class="cls-28" d="M224.75,51.39V40.57h70.66A1.63,1.63,0,0,1,297,42.23v7.49a1.64,1.64,0,0,1-1.62,1.67Z" transform="translate(-4.52 -2.1)"/></g><g class="cls-31"><path class="cls-32" d="M223.27,51.66V41h69.65a1.63,1.63,0,0,1,1.6,1.65V50a1.62,1.62,0,0,1-1.6,1.64Z" transform="translate(-4.52 -2.1)"/></g><g class="cls-27"><path class="cls-28" d="M224.75,33.9V23.08h28.42a1.64,1.64,0,0,1,1.63,1.66v7.5a1.64,1.64,0,0,1-1.63,1.66Z" transform="translate(-4.52 -2.1)"/></g><g class="cls-31"><path class="cls-32" d="M223.27,34.43V23.76h28a1.62,1.62,0,0,1,1.6,1.64v7.39a1.63,1.63,0,0,1-1.6,1.64Z" transform="translate(-4.52 -2.1)"/></g><g class="cls-27"><path class="cls-28" d="M224.75,17.25V6.43H241.8a1.64,1.64,0,0,1,1.63,1.66v7.49a1.65,1.65,0,0,1-1.63,1.67Z" transform="translate(-4.52 -2.1)"/></g><g class="cls-31"><path class="cls-32" d="M223.27,18V7.35h16.81A1.61,1.61,0,0,1,241.68,9v7.38a1.62,1.62,0,0,1-1.6,1.65Z" transform="translate(-4.52 -2.1)"/></g><rect class="cls-33" x="235.65" width="2.26" height="16.49"/><rect class="cls-33" x="246.65" y="20" width="2.26" height="16.49"/><rect class="cls-33" x="288.65" y="36" width="2.26" height="16.49"/><rect class="cls-33" x="293.65" y="119" width="2.26" height="16.49"/><rect class="cls-33" x="249.65" y="136" width="2.26" height="16.49"/><rect class="cls-33" x="295.65" y="153" width="2.26" height="16.49"/><rect class="cls-33" x="275.65" y="169" width="2.26" height="16.49"/><rect class="cls-33" x="282.65" y="187" width="2.26" height="16.49"/><text class="cls-34" transform="translate(177.54 165.34)">1<tspan class="cls-13" x="4.73" y="0">0 </tspan><tspan class="cls-7" x="12.48" y="0">t</tspan><tspan class="cls-13" x="14.72" y="0">o </tspan><tspan class="cls-35" x="22.33" y="0">1</tspan><tspan class="cls-13" x="26.88" y="0">4</tspan></text></g></g></svg>