<svg xmlns="http://www.w3.org/2000/svg" xmlns:xlink="http://www.w3.org/1999/xlink" viewBox="0 0 346.43 239.69"><defs><style>.cls-1{fill:none;}.cls-2{font-size:12px;}.cls-12,.cls-15,.cls-18,.cls-19,.cls-2,.cls-32,.cls-6{fill:#231f20;font-family:Futura-Medium, Futura;font-weight:500;}.cls-3{letter-spacing:-0.08em;}.cls-4{letter-spacing:-0.06em;}.cls-5{letter-spacing:-0.08em;}.cls-12,.cls-15,.cls-18,.cls-32,.cls-6{font-size:9px;}.cls-13,.cls-6{letter-spacing:-0.03em;}.cls-18,.cls-7{letter-spacing:-0.03em;}.cls-8{letter-spacing:-0.04em;}.cls-9{letter-spacing:-0.16em;}.cls-10{letter-spacing:-0.04em;}.cls-11{letter-spacing:-0.05em;}.cls-12{letter-spacing:-0.11em;}.cls-14{letter-spacing:-0.04em;}.cls-15,.cls-33{letter-spacing:-0.11em;}.cls-16{letter-spacing:-0.12em;}.cls-17{letter-spacing:-0.03em;}.cls-19{font-size:10px;letter-spacing:-0.08em;}.cls-20{letter-spacing:-0.03em;}.cls-21{letter-spacing:-0.02em;}.cls-22{letter-spacing:-0.03em;}.cls-23{letter-spacing:-0.12em;}.cls-24{letter-spacing:-0.11em;}.cls-25{letter-spacing:-0.12em;}.cls-26{letter-spacing:-0.09em;}.cls-27{clip-path:url(#clip-path);}.cls-28{fill:#207b8d;}.cls-29{clip-path:url(#clip-path-13);}.cls-30{fill:#b83350;}.cls-31{fill:#fff;}.cls-32{letter-spacing:-0.09em;}</style><clipPath id="clip-path" transform="translate(-41.63 -1.99)"><rect class="cls-1" width="349.79" height="207.25"/></clipPath><clipPath id="clip-path-13" transform="translate(-41.63 -1.99)"><rect class="cls-1" x="45.89" y="0.89" width="348.29" height="206.37"/></clipPath></defs><g id="Layer_2" data-name="Layer 2"><g id="Layer_1-2" data-name="Layer 1"><text class="cls-2" transform="translate(106.3 215.33)">2<tspan class="cls-3" x="7.41" y="0">0</tspan><tspan class="cls-4" x="13.89" y="0">1</tspan><tspan x="20.57" y="0">0</tspan></text><text class="cls-2" transform="translate(177.41 215.33)">2<tspan class="cls-3" x="7.41" y="0">0</tspan><tspan class="cls-5" x="13.89" y="0">1</tspan><tspan x="20.32" y="0">9</tspan></text><text class="cls-6" transform="translate(134.17 13.41)">85 &amp; older</text><text class="cls-6" transform="translate(137.55 30.75)">75 <tspan class="cls-7" x="13.02" y="0">t</tspan><tspan x="15.26" y="0">o </tspan><tspan class="cls-8" x="22.87" y="0">8</tspan><tspan x="28.02" y="0">4</tspan></text><text class="cls-6" transform="translate(137.55 46.8)">65 <tspan class="cls-7" x="13.02" y="0">t</tspan><tspan x="15.26" y="0">o </tspan><tspan class="cls-9" x="22.87" y="0">7</tspan><tspan x="27.01" y="0">4</tspan></text><text class="cls-6" transform="translate(136.73 63.44)">55 <tspan class="cls-7" x="13.02" y="0">t</tspan><tspan x="15.26" y="0">o </tspan><tspan class="cls-10" x="22.87" y="0">6</tspan><tspan x="28.06" y="0">4</tspan></text><text class="cls-6" transform="translate(137.55 81.04)">45 <tspan class="cls-7" x="13.02" y="0">t</tspan><tspan x="15.26" y="0">o </tspan><tspan class="cls-11" x="22.87" y="0">5</tspan><tspan x="27.93" y="0">4</tspan></text><text class="cls-6" transform="translate(138 97.42)">35 <tspan class="cls-7" x="13.02" y="0">t</tspan><tspan x="15.26" y="0">o 44</tspan></text><text class="cls-6" transform="translate(137.78 114.44)">25 <tspan class="cls-7" x="13.02" y="0">t</tspan><tspan x="15.26" y="0">o </tspan><tspan class="cls-11" x="22.87" y="0">3</tspan><tspan x="27.93" y="0">4</tspan></text><text class="cls-12" transform="translate(137.78 129.98)">1<tspan class="cls-13" x="4.59" y="0">8 </tspan><tspan class="cls-7" x="12.35" y="0">t</tspan><tspan class="cls-13" x="14.58" y="0">o </tspan><tspan class="cls-14" x="22.19" y="0">2</tspan><tspan class="cls-13" x="27.4" y="0">4</tspan></text><text class="cls-15" transform="translate(137.78 146.68)">1<tspan class="cls-13" x="4.55" y="0">5 </tspan><tspan class="cls-7" x="12.31" y="0">t</tspan><tspan class="cls-13" x="14.55" y="0">o </tspan><tspan class="cls-16" x="22.16" y="0">1</tspan><tspan class="cls-13" x="26.59" y="0">7</tspan></text><text class="cls-6" transform="translate(140.47 180.88)">5 <tspan class="cls-17" x="7.76" y="0">t</tspan><tspan x="9.99" y="0">o 9</tspan></text><text class="cls-18" transform="translate(136.73 196.3)">U<tspan class="cls-13" x="6.42" y="0">nder 5</tspan></text><text class="cls-19" transform="translate(176.7 228.38)">T<tspan class="cls-20" x="4.06" y="0">o</tspan><tspan class="cls-21" x="9.8" y="0">t</tspan><tspan class="cls-22" x="12.31" y="0">al population: </tspan><tspan class="cls-23" x="73.91" y="0">1</tspan><tspan class="cls-22" x="78.88" y="0">6,969</tspan></text><text class="cls-19" transform="translate(36.64 226.78)">T<tspan class="cls-20" x="4.06" y="0">o</tspan><tspan class="cls-21" x="9.8" y="0">t</tspan><tspan class="cls-22" x="12.31" y="0">al population: 9</tspan><tspan class="cls-24" x="79.76" y="0">,</tspan><tspan class="cls-25" x="81.79" y="0">1</tspan><tspan class="cls-26" x="86.72" y="0">7</tspan><tspan class="cls-22" x="92" y="0">1</tspan></text><g class="cls-27"><path class="cls-28" d="M174.48,201.93V191.2H113.42v10.73Z" transform="translate(-41.63 -1.99)"/></g><g class="cls-27"><path class="cls-28" d="M174.48,184.6V173.88H115.89V184.6Z" transform="translate(-41.63 -1.99)"/></g><g class="cls-27"><path class="cls-28" d="M174.48,168.1V157.37H111.77V168.1Z" transform="translate(-41.63 -1.99)"/></g><g class="cls-27"><path class="cls-28" d="M174.48,151.6V140.87h-38V151.6Z" transform="translate(-41.63 -1.99)"/></g><g class="cls-27"><path class="cls-28" d="M174.48,134.27V123.54H81.24v10.73Z" transform="translate(-41.63 -1.99)"/></g><g class="cls-27"><path class="cls-28" d="M174.48,117.76V107H41.63v10.72Z" transform="translate(-41.63 -1.99)"/></g><g class="cls-27"><path class="cls-28" d="M174.48,101.26V90.53H43.28v10.73Z" transform="translate(-41.63 -1.99)"/></g><g class="cls-27"><path class="cls-28" d="M174.48,83.93V73.21H63.91V83.93Z" transform="translate(-41.63 -1.99)"/></g><g class="cls-27"><path class="cls-28" d="M174.48,67.43V56.7H100.22V67.43Z" transform="translate(-41.63 -1.99)"/></g><g class="cls-27"><path class="cls-28" d="M174.48,50.93V40.2H145.6V50.93Z" transform="translate(-41.63 -1.99)"/></g><g class="cls-27"><path class="cls-28" d="M174.48,33.6V22.87H150.55V33.6Z" transform="translate(-41.63 -1.99)"/></g><g class="cls-27"><path class="cls-28" d="M174.48,17.09V6.37H162.93V17.09Z" transform="translate(-41.63 -1.99)"/></g><g class="cls-29"><path class="cls-30" d="M219.62,202V191.27h63.27a1.65,1.65,0,0,1,1.64,1.65v7.39a1.64,1.64,0,0,1-1.64,1.64Z" transform="translate(-41.63 -1.99)"/></g><g class="cls-29"><path class="cls-30" d="M219.62,184.7V174h52.59a1.64,1.64,0,0,1,1.64,1.64v7.4a1.65,1.65,0,0,1-1.64,1.64Z" transform="translate(-41.63 -1.99)"/></g><g class="cls-29"><path class="cls-30" d="M219.62,168.27V157.58h45.19a1.64,1.64,0,0,1,1.64,1.65v7.39a1.64,1.64,0,0,1-1.64,1.65Z" transform="translate(-41.63 -1.99)"/></g><g class="cls-29"><path class="cls-30" d="M219.62,151.83V141.15h23.83a1.64,1.64,0,0,1,1.64,1.65v7.39a1.63,1.63,0,0,1-1.64,1.64Z" transform="translate(-41.63 -1.99)"/></g><g class="cls-29"><path class="cls-30" d="M219.62,134.58V123.9h56.69a1.64,1.64,0,0,1,1.65,1.64v7.4a1.65,1.65,0,0,1-1.65,1.64Z" transform="translate(-41.63 -1.99)"/></g><g class="cls-29"><path class="cls-30" d="M219.62,118.15V107.47H386.41a1.64,1.64,0,0,1,1.65,1.64v7.39a1.65,1.65,0,0,1-1.65,1.65Z" transform="translate(-41.63 -1.99)"/></g><g class="cls-29"><path class="cls-30" d="M219.62,101.71V91h121.6a1.65,1.65,0,0,1,1.65,1.65v7.39a1.64,1.64,0,0,1-1.65,1.64Z" transform="translate(-41.63 -1.99)"/></g><g class="cls-29"><path class="cls-30" d="M219.62,84.46V73.78h87.09a1.64,1.64,0,0,1,1.65,1.64v7.4a1.65,1.65,0,0,1-1.65,1.64Z" transform="translate(-41.63 -1.99)"/></g><g class="cls-29"><path class="cls-30" d="M219.62,68V57.35h98.6A1.64,1.64,0,0,1,319.86,59v7.39A1.65,1.65,0,0,1,318.22,68Z" transform="translate(-41.63 -1.99)"/></g><g class="cls-29"><path class="cls-30" d="M219.62,51.59V40.91H268.1a1.65,1.65,0,0,1,1.64,1.65V50a1.64,1.64,0,0,1-1.64,1.64Z" transform="translate(-41.63 -1.99)"/></g><g class="cls-29"><path class="cls-30" d="M219.62,34.34V23.66h14.79a1.63,1.63,0,0,1,1.64,1.64v7.4a1.64,1.64,0,0,1-1.64,1.64Z" transform="translate(-41.63 -1.99)"/></g><g class="cls-29"><path class="cls-30" d="M219.62,17.91V7.23h5.75A1.64,1.64,0,0,1,227,8.87v7.39a1.65,1.65,0,0,1-1.65,1.65Z" transform="translate(-41.63 -1.99)"/></g><rect class="cls-31" x="183.93" width="2.26" height="16.49"/><rect class="cls-31" x="192.93" y="17" width="2.26" height="16.49"/><rect class="cls-31" x="226.93" y="36" width="2.26" height="16.49"/><rect class="cls-31" x="276.93" y="52" width="2.26" height="16.49"/><rect class="cls-31" x="265.93" y="69" width="2.26" height="16.49"/><rect class="cls-31" x="299.93" y="86" width="2.26" height="16.49"/><rect class="cls-31" x="235.06" y="118.38" width="2.26" height="16.49"/><rect class="cls-31" x="202.06" y="136.38" width="2.26" height="16.49"/><rect class="cls-31" x="224.02" y="151.91" width="2.26" height="16.49"/><rect class="cls-31" x="231.02" y="168.91" width="2.26" height="16.49"/><rect class="cls-31" x="242.02" y="186.91" width="2.26" height="16.49"/><text class="cls-32" transform="translate(137.55 164.42)">1<tspan class="cls-13" x="4.73" y="0">0 </tspan><tspan class="cls-7" x="12.48" y="0">t</tspan><tspan class="cls-13" x="14.72" y="0">o </tspan><tspan class="cls-33" x="22.33" y="0">1</tspan><tspan class="cls-13" x="26.88" y="0">4</tspan></text></g></g></svg>