<svg xmlns="http://www.w3.org/2000/svg" xmlns:xlink="http://www.w3.org/1999/xlink" viewBox="0 0 374.59 236.68"><defs><style>.cls-1{fill:none;}.cls-2{font-size:12px;}.cls-12,.cls-15,.cls-18,.cls-19,.cls-2,.cls-29,.cls-6{fill:#231f20;font-family:Futura-Medium, Futura;font-weight:500;}.cls-3{letter-spacing:-0.08em;}.cls-4{letter-spacing:-0.06em;}.cls-5{letter-spacing:-0.08em;}.cls-12,.cls-15,.cls-18,.cls-29,.cls-6{font-size:9px;}.cls-13,.cls-6{letter-spacing:-0.03em;}.cls-18,.cls-7{letter-spacing:-0.03em;}.cls-8{letter-spacing:-0.04em;}.cls-9{letter-spacing:-0.16em;}.cls-10{letter-spacing:-0.04em;}.cls-11{letter-spacing:-0.05em;}.cls-12{letter-spacing:-0.11em;}.cls-14{letter-spacing:-0.04em;}.cls-15,.cls-30{letter-spacing:-0.11em;}.cls-16{letter-spacing:-0.12em;}.cls-17{letter-spacing:-0.03em;}.cls-19{font-size:10px;letter-spacing:-0.08em;}.cls-20{letter-spacing:-0.03em;}.cls-21{letter-spacing:-0.02em;}.cls-22{letter-spacing:-0.03em;}.cls-23{letter-spacing:-0.05em;}.cls-24{clip-path:url(#clip-path);}.cls-25{fill:#207b8d;}.cls-26{clip-path:url(#clip-path-13);}.cls-27{fill:#b83350;}.cls-28{fill:#fff;}.cls-29{letter-spacing:-0.09em;}</style><clipPath id="clip-path" transform="translate(-3.69 -5.31)"><rect class="cls-1" width="348.18" height="206.3"/></clipPath><clipPath id="clip-path-13" transform="translate(-3.69 -5.31)"><rect class="cls-1" x="49" y="1.3" width="345.98" height="205"/></clipPath></defs><g id="Layer_2" data-name="Layer 2"><g id="Layer_1-2" data-name="Layer 1"><text class="cls-2" transform="translate(87.46 212.31)">2<tspan class="cls-3" x="7.41" y="0">0</tspan><tspan class="cls-4" x="13.89" y="0">1</tspan><tspan x="20.57" y="0">0</tspan></text><text class="cls-2" transform="translate(158.57 212.31)">2<tspan class="cls-3" x="7.41" y="0">0</tspan><tspan class="cls-5" x="13.89" y="0">1</tspan><tspan x="20.32" y="0">9</tspan></text><text class="cls-6" transform="translate(115.32 10.39)">85 &amp; older</text><text class="cls-6" transform="translate(118.7 27.74)">75 <tspan class="cls-7" x="13.02" y="0">t</tspan><tspan x="15.26" y="0">o </tspan><tspan class="cls-8" x="22.87" y="0">8</tspan><tspan x="28.02" y="0">4</tspan></text><text class="cls-6" transform="translate(118.7 43.78)">65 <tspan class="cls-7" x="13.02" y="0">t</tspan><tspan x="15.26" y="0">o </tspan><tspan class="cls-9" x="22.87" y="0">7</tspan><tspan x="27.01" y="0">4</tspan></text><text class="cls-6" transform="translate(117.89 60.42)">55 <tspan class="cls-7" x="13.02" y="0">t</tspan><tspan x="15.26" y="0">o </tspan><tspan class="cls-10" x="22.87" y="0">6</tspan><tspan x="28.06" y="0">4</tspan></text><text class="cls-6" transform="translate(118.7 78.03)">45 <tspan class="cls-7" x="13.02" y="0">t</tspan><tspan x="15.26" y="0">o </tspan><tspan class="cls-11" x="22.87" y="0">5</tspan><tspan x="27.93" y="0">4</tspan></text><text class="cls-6" transform="translate(119.16 94.41)">35 <tspan class="cls-7" x="13.02" y="0">t</tspan><tspan x="15.26" y="0">o 44</tspan></text><text class="cls-6" transform="translate(118.93 111.42)">25 <tspan class="cls-7" x="13.02" y="0">t</tspan><tspan x="15.26" y="0">o </tspan><tspan class="cls-11" x="22.87" y="0">3</tspan><tspan x="27.93" y="0">4</tspan></text><text class="cls-12" transform="translate(118.93 126.97)">1<tspan class="cls-13" x="4.59" y="0">8 </tspan><tspan class="cls-7" x="12.35" y="0">t</tspan><tspan class="cls-13" x="14.58" y="0">o </tspan><tspan class="cls-14" x="22.19" y="0">2</tspan><tspan class="cls-13" x="27.4" y="0">4</tspan></text><text class="cls-15" transform="translate(118.93 143.67)">1<tspan class="cls-13" x="4.55" y="0">5 </tspan><tspan class="cls-7" x="12.31" y="0">t</tspan><tspan class="cls-13" x="14.55" y="0">o </tspan><tspan class="cls-16" x="22.16" y="0">1</tspan><tspan class="cls-13" x="26.59" y="0">7</tspan></text><text class="cls-6" transform="translate(121.63 177.86)">5 <tspan class="cls-17" x="7.76" y="0">t</tspan><tspan x="9.99" y="0">o 9</tspan></text><text class="cls-18" transform="translate(117.89 193.28)">U<tspan class="cls-13" x="6.42" y="0">nder 5</tspan></text><text class="cls-19" transform="translate(157.86 225.36)">T<tspan class="cls-20" x="4.06" y="0">o</tspan><tspan class="cls-21" x="9.8" y="0">t</tspan><tspan class="cls-22" x="12.31" y="0">al population: 69,</tspan><tspan class="cls-23" x="88.38" y="0">3</tspan><tspan class="cls-22" x="94" y="0">41</tspan></text><text class="cls-19" transform="translate(9.72 223.76)">T<tspan class="cls-20" x="4.06" y="0">o</tspan><tspan class="cls-21" x="9.8" y="0">t</tspan><tspan class="cls-22" x="12.31" y="0">al population: 73,939</tspan></text><g class="cls-24"><path class="cls-25" d="M116.18,201V190.33H83.33V201Z" transform="translate(-3.69 -5.31)"/></g><g class="cls-24"><path class="cls-25" d="M116.18,183.76V173.08H88.26v10.68Z" transform="translate(-3.69 -5.31)"/></g><g class="cls-24"><path class="cls-25" d="M116.18,167.33V156.65h-23v10.68Z" transform="translate(-3.69 -5.31)"/></g><g class="cls-24"><path class="cls-25" d="M116.18,150.9V140.22h-15.6V150.9Z" transform="translate(-3.69 -5.31)"/></g><g class="cls-24"><path class="cls-25" d="M116.18,133.65V123H71v10.68Z" transform="translate(-3.69 -5.31)"/></g><g class="cls-24"><path class="cls-25" d="M116.18,117.22V106.55H12.69v10.67Z" transform="translate(-3.69 -5.31)"/></g><g class="cls-24"><path class="cls-25" d="M116.18,100.8V90.12H65.26V100.8Z" transform="translate(-3.69 -5.31)"/></g><g class="cls-24"><path class="cls-25" d="M116.18,83.55V72.87H54.58V83.55Z" transform="translate(-3.69 -5.31)"/></g><g class="cls-24"><path class="cls-25" d="M116.18,67.12V56.44h-37V67.12Z" transform="translate(-3.69 -5.31)"/></g><g class="cls-24"><path class="cls-25" d="M116.18,50.69V40H97.29V50.69Z" transform="translate(-3.69 -5.31)"/></g><g class="cls-24"><path class="cls-25" d="M116.18,33.44V22.77h-7.39V33.44Z" transform="translate(-3.69 -5.31)"/></g><g class="cls-24"><path class="cls-25" d="M116.18,17V6.34h-2.46V17Z" transform="translate(-3.69 -5.31)"/></g><g class="cls-26"><path class="cls-27" d="M164.45,201V190.43h49a1.63,1.63,0,0,1,1.63,1.63v7.35a1.63,1.63,0,0,1-1.63,1.63Z" transform="translate(-3.69 -5.31)"/></g><g class="cls-26"><path class="cls-27" d="M164.45,183.9V173.29h36.73a1.63,1.63,0,0,1,1.63,1.63v7.35a1.63,1.63,0,0,1-1.63,1.63Z" transform="translate(-3.69 -5.31)"/></g><g class="cls-26"><path class="cls-27" d="M164.45,167.57V157h31.83a1.63,1.63,0,0,1,1.63,1.64v7.34a1.63,1.63,0,0,1-1.63,1.63Z" transform="translate(-3.69 -5.31)"/></g><g class="cls-26"><path class="cls-27" d="M164.45,151.25V140.64h17.14a1.63,1.63,0,0,1,1.63,1.63v7.35a1.63,1.63,0,0,1-1.63,1.63Z" transform="translate(-3.69 -5.31)"/></g><g class="cls-26"><path class="cls-27" d="M164.45,134.11V123.5h91.41a1.63,1.63,0,0,1,1.63,1.63v7.35a1.63,1.63,0,0,1-1.63,1.63Z" transform="translate(-3.69 -5.31)"/></g><g class="cls-26"><path class="cls-27" d="M164.45,117.79V107.18H376.66a1.63,1.63,0,0,1,1.63,1.63v7.34a1.63,1.63,0,0,1-1.63,1.64Z" transform="translate(-3.69 -5.31)"/></g><g class="cls-26"><path class="cls-27" d="M164.45,101.46V90.85H267.29a1.63,1.63,0,0,1,1.63,1.64v7.34a1.63,1.63,0,0,1-1.63,1.63Z" transform="translate(-3.69 -5.31)"/></g><g class="cls-26"><path class="cls-27" d="M164.45,84.32V73.71h93a1.64,1.64,0,0,1,1.64,1.64v7.34a1.64,1.64,0,0,1-1.64,1.63Z" transform="translate(-3.69 -5.31)"/></g><g class="cls-26"><path class="cls-27" d="M164.45,68V57.39h67.74A1.63,1.63,0,0,1,233.82,59v7.35A1.63,1.63,0,0,1,232.19,68Z" transform="translate(-3.69 -5.31)"/></g><g class="cls-26"><path class="cls-27" d="M164.45,51.68V41.07h40.81a1.63,1.63,0,0,1,1.63,1.63V50a1.63,1.63,0,0,1-1.63,1.64Z" transform="translate(-3.69 -5.31)"/></g><g class="cls-26"><path class="cls-27" d="M164.45,34.54V23.93h18A1.63,1.63,0,0,1,184,25.56V32.9a1.63,1.63,0,0,1-1.64,1.64Z" transform="translate(-3.69 -5.31)"/></g><g class="cls-26"><path class="cls-27" d="M164.45,18.21V7.6h1.63a1.63,1.63,0,0,1,1.63,1.64v7.34a1.63,1.63,0,0,1-1.63,1.63Z" transform="translate(-3.69 -5.31)"/></g><rect class="cls-28" x="162.63" width="2.26" height="16.49"/><text class="cls-29" transform="translate(118.7 161.02)">1<tspan class="cls-13" x="4.73" y="0">0 </tspan><tspan class="cls-7" x="12.48" y="0">t</tspan><tspan class="cls-13" x="14.72" y="0">o </tspan><tspan class="cls-30" x="22.33" y="0">1</tspan><tspan class="cls-13" x="26.88" y="0">4</tspan></text></g></g></svg>