<svg xmlns="http://www.w3.org/2000/svg" xmlns:xlink="http://www.w3.org/1999/xlink" viewBox="0 0 273.82 235.56"><defs><style>.cls-1,.cls-27{fill:none;}.cls-2{font-size:12px;}.cls-12,.cls-15,.cls-18,.cls-19,.cls-2,.cls-29,.cls-6{fill:#231f20;font-family:Futura-Medium, Futura;font-weight:500;}.cls-3{letter-spacing:-0.08em;}.cls-4{letter-spacing:-0.06em;}.cls-5{letter-spacing:-0.08em;}.cls-12,.cls-15,.cls-18,.cls-29,.cls-6{font-size:9px;}.cls-13,.cls-6{letter-spacing:-0.03em;}.cls-18,.cls-7{letter-spacing:-0.03em;}.cls-8{letter-spacing:-0.04em;}.cls-9{letter-spacing:-0.16em;}.cls-10{letter-spacing:-0.04em;}.cls-11{letter-spacing:-0.05em;}.cls-12{letter-spacing:-0.11em;}.cls-14{letter-spacing:-0.04em;}.cls-15,.cls-30{letter-spacing:-0.11em;}.cls-16{letter-spacing:-0.12em;}.cls-17{letter-spacing:-0.03em;}.cls-19{font-size:10px;letter-spacing:-0.08em;}.cls-20{letter-spacing:-0.03em;}.cls-21{letter-spacing:-0.02em;}.cls-22{letter-spacing:-0.03em;}.cls-23{letter-spacing:-0.11em;}.cls-24{letter-spacing:-0.11em;}.cls-25{letter-spacing:-0.03em;}.cls-26{clip-path:url(#clip-path);}.cls-27{stroke:#010101;stroke-miterlimit:10;stroke-opacity:0;stroke-width:2px;}.cls-28{fill:#fff;}.cls-29{letter-spacing:-0.09em;}.cls-31{clip-path:url(#clip-path-14);}.cls-32{fill:#207b8d;}.cls-33{clip-path:url(#clip-path-26);}.cls-34{fill:#b83350;}</style><clipPath id="clip-path" transform="translate(-14.03 -5.39)"><rect class="cls-1" width="350.78" height="207.84"/></clipPath><clipPath id="clip-path-14" transform="translate(-14.03 -5.39)"><rect class="cls-1" x="22.95" y="0.64" width="207.27" height="203.43"/></clipPath><clipPath id="clip-path-26" transform="translate(-14.03 -5.39)"><rect class="cls-1" x="71.24" y="0.64" width="209.99" height="206.1"/></clipPath></defs><g id="Layer_2" data-name="Layer 2"><g id="Layer_1-2" data-name="Layer 1"><text class="cls-2" transform="translate(87.46 211.19)">2<tspan class="cls-3" x="7.41" y="0">0</tspan><tspan class="cls-4" x="13.89" y="0">1</tspan><tspan x="20.57" y="0">0</tspan></text><text class="cls-2" transform="translate(158.57 211.19)">2<tspan class="cls-3" x="7.41" y="0">0</tspan><tspan class="cls-5" x="13.89" y="0">1</tspan><tspan x="20.32" y="0">9</tspan></text><text class="cls-6" transform="translate(115.32 9.27)">85 &amp; older</text><text class="cls-6" transform="translate(118.7 26.62)">75 <tspan class="cls-7" x="13.02" y="0">t</tspan><tspan x="15.26" y="0">o </tspan><tspan class="cls-8" x="22.87" y="0">8</tspan><tspan x="28.02" y="0">4</tspan></text><text class="cls-6" transform="translate(118.7 42.66)">65 <tspan class="cls-7" x="13.02" y="0">t</tspan><tspan x="15.26" y="0">o </tspan><tspan class="cls-9" x="22.87" y="0">7</tspan><tspan x="27.01" y="0">4</tspan></text><text class="cls-6" transform="translate(117.89 59.3)">55 <tspan class="cls-7" x="13.02" y="0">t</tspan><tspan x="15.26" y="0">o </tspan><tspan class="cls-10" x="22.87" y="0">6</tspan><tspan x="28.06" y="0">4</tspan></text><text class="cls-6" transform="translate(118.7 76.91)">45 <tspan class="cls-7" x="13.02" y="0">t</tspan><tspan x="15.26" y="0">o </tspan><tspan class="cls-11" x="22.87" y="0">5</tspan><tspan x="27.93" y="0">4</tspan></text><text class="cls-6" transform="translate(119.16 93.28)">35 <tspan class="cls-7" x="13.02" y="0">t</tspan><tspan x="15.26" y="0">o 44</tspan></text><text class="cls-6" transform="translate(118.93 110.3)">25 <tspan class="cls-7" x="13.02" y="0">t</tspan><tspan x="15.26" y="0">o </tspan><tspan class="cls-11" x="22.87" y="0">3</tspan><tspan x="27.93" y="0">4</tspan></text><text class="cls-12" transform="translate(118.93 125.84)">1<tspan class="cls-13" x="4.59" y="0">8 </tspan><tspan class="cls-7" x="12.35" y="0">t</tspan><tspan class="cls-13" x="14.58" y="0">o </tspan><tspan class="cls-14" x="22.19" y="0">2</tspan><tspan class="cls-13" x="27.4" y="0">4</tspan></text><text class="cls-15" transform="translate(118.93 142.54)">1<tspan class="cls-13" x="4.55" y="0">5 </tspan><tspan class="cls-7" x="12.31" y="0">t</tspan><tspan class="cls-13" x="14.55" y="0">o </tspan><tspan class="cls-16" x="22.16" y="0">1</tspan><tspan class="cls-13" x="26.59" y="0">7</tspan></text><text class="cls-6" transform="translate(121.63 176.74)">5 <tspan class="cls-17" x="7.76" y="0">t</tspan><tspan x="9.99" y="0">o 9</tspan></text><text class="cls-18" transform="translate(117.89 192.16)">U<tspan class="cls-13" x="6.42" y="0">nder 5</tspan></text><text class="cls-19" transform="translate(157.86 224.24)">T<tspan class="cls-20" x="4.06" y="0">o</tspan><tspan class="cls-21" x="9.8" y="0">t</tspan><tspan class="cls-22" x="12.31" y="0">al population: 9,455</tspan></text><text class="cls-19" transform="translate(11.27 222.64)">T<tspan class="cls-20" x="4.06" y="0">o</tspan><tspan class="cls-21" x="9.8" y="0">t</tspan><tspan class="cls-22" x="12.31" y="0">al population: </tspan><tspan class="cls-23" x="73.91" y="0">1</tspan><tspan class="cls-22" x="78.97" y="0">4,6</tspan><tspan class="cls-24" x="93.44" y="0">5</tspan><tspan class="cls-25" x="98.53" y="0">1</tspan></text><g class="cls-26"><path class="cls-27" d="M175,202.51V191.75H118.71v10.76Z" transform="translate(-14.03 -5.39)"/></g><g class="cls-26"><path class="cls-27" d="M175,185.13V174.37H147.67v10.76Z" transform="translate(-14.03 -5.39)"/></g><g class="cls-26"><path class="cls-27" d="M175,168.58V157.82H141.05v10.76Z" transform="translate(-14.03 -5.39)"/></g><g class="cls-26"><path class="cls-27" d="M175,152V141.27H156.77V152Z" transform="translate(-14.03 -5.39)"/></g><g class="cls-26"><path class="cls-27" d="M175,134.65V123.89H122v10.76Z" transform="translate(-14.03 -5.39)"/></g><g class="cls-26"><path class="cls-27" d="M175,118.1V107.34H32.65V118.1Z" transform="translate(-14.03 -5.39)"/></g><g class="cls-26"><path class="cls-27" d="M175,101.55V90.79H78.16v10.76Z" transform="translate(-14.03 -5.39)"/></g><g class="cls-26"><path class="cls-27" d="M175,84.17V73.41H64.92V84.17Z" transform="translate(-14.03 -5.39)"/></g><g class="cls-26"><path class="cls-27" d="M175,67.62V56.86H104.64V67.62Z" transform="translate(-14.03 -5.39)"/></g><g class="cls-26"><path class="cls-27" d="M175,51.07V40.31H133.6V51.07Z" transform="translate(-14.03 -5.39)"/></g><g class="cls-26"><path class="cls-27" d="M175,33.69V22.94H145.19V33.69Z" transform="translate(-14.03 -5.39)"/></g><g class="cls-26"><path class="cls-27" d="M175,17.14V6.39H159.25V17.14Z" transform="translate(-14.03 -5.39)"/></g><g class="cls-26"><path class="cls-27" d="M175,202.51V191.75h43.85a1.65,1.65,0,0,1,1.66,1.65v7.45a1.66,1.66,0,0,1-1.66,1.66Z" transform="translate(-14.03 -5.39)"/></g><rect class="cls-28" x="265.91" y="48.8" width="2.26" height="16.49"/><rect class="cls-28" x="263.91" y="81.8" width="2.26" height="16.49"/><rect class="cls-28" x="204.91" y="181.8" width="2.26" height="16.49"/><text class="cls-29" transform="translate(119.54 160.26)">1<tspan class="cls-13" x="4.73" y="0">0 </tspan><tspan class="cls-7" x="12.48" y="0">t</tspan><tspan class="cls-13" x="14.72" y="0">o </tspan><tspan class="cls-30" x="22.33" y="0">1</tspan><tspan class="cls-13" x="26.88" y="0">4</tspan></text><g class="cls-31"><path class="cls-32" d="M126.38,198.46V187.55H63.93v10.91Z" transform="translate(-14.03 -5.39)"/></g><g class="cls-31"><path class="cls-32" d="M126.38,182.09V171.18H79.09v10.91Z" transform="translate(-14.03 -5.39)"/></g><g class="cls-31"><path class="cls-32" d="M126.38,165.72V154.81H65.75v10.91Z" transform="translate(-14.03 -5.39)"/></g><g class="cls-31"><path class="cls-32" d="M126.38,148.74V137.83H76.06v10.91Z" transform="translate(-14.03 -5.39)"/></g><g class="cls-31"><path class="cls-32" d="M126.38,132.37V121.46H43.92v10.91Z" transform="translate(-14.03 -5.39)"/></g><g class="cls-31"><path class="cls-32" d="M126.38,116V105.09H53.62V116Z" transform="translate(-14.03 -5.39)"/></g><g class="cls-31"><path class="cls-32" d="M126.38,99.63V88.71H38.47V99.63Z" transform="translate(-14.03 -5.39)"/></g><g class="cls-31"><path class="cls-32" d="M126.38,83.26V72.34H33V83.26Z" transform="translate(-14.03 -5.39)"/></g><g class="cls-31"><path class="cls-32" d="M126.38,66.89V56h-80V66.89Z" transform="translate(-14.03 -5.39)"/></g><g class="cls-31"><path class="cls-32" d="M126.38,49.91V39h-40V49.91Z" transform="translate(-14.03 -5.39)"/></g><g class="cls-31"><path class="cls-32" d="M126.38,33.54V22.62H74.85V33.54Z" transform="translate(-14.03 -5.39)"/></g><g class="cls-31"><path class="cls-32" d="M126.38,17.17V6.25H98.49V17.17Z" transform="translate(-14.03 -5.39)"/></g><g class="cls-33"><path class="cls-34" d="M176,201.06V190h24a1.23,1.23,0,0,1,1.23,1.23v8.6a1.23,1.23,0,0,1-1.23,1.23Z" transform="translate(-14.03 -5.39)"/></g><g class="cls-33"><path class="cls-34" d="M176,184.48V173.42h31.33a1.23,1.23,0,0,1,1.23,1.23v8.6a1.23,1.23,0,0,1-1.23,1.23Z" transform="translate(-14.03 -5.39)"/></g><g class="cls-33"><path class="cls-34" d="M176,167.89V156.83h33.18a1.23,1.23,0,0,1,1.23,1.23v8.6a1.23,1.23,0,0,1-1.23,1.23Z" transform="translate(-14.03 -5.39)"/></g><g class="cls-33"><path class="cls-34" d="M176,150.69V139.63h27.65a1.23,1.23,0,0,1,1.23,1.23v8.6a1.23,1.23,0,0,1-1.23,1.23Z" transform="translate(-14.03 -5.39)"/></g><g class="cls-33"><path class="cls-34" d="M176,134.1V123h63.28a1.23,1.23,0,0,1,1.23,1.23v8.6a1.23,1.23,0,0,1-1.23,1.23Z" transform="translate(-14.03 -5.39)"/></g><g class="cls-33"><path class="cls-34" d="M176,117.52V106.46h52.83a1.23,1.23,0,0,1,1.23,1.23v8.6a1.23,1.23,0,0,1-1.23,1.23Z" transform="translate(-14.03 -5.39)"/></g><g class="cls-33"><path class="cls-34" d="M176,100.93V89.87h52.83a1.23,1.23,0,0,1,1.23,1.23v8.6a1.23,1.23,0,0,1-1.23,1.23Z" transform="translate(-14.03 -5.39)"/></g><g class="cls-33"><path class="cls-34" d="M176,84.34v-11h68.19a1.23,1.23,0,0,1,1.23,1.22v8.6a1.23,1.23,0,0,1-1.23,1.23Z" transform="translate(-14.03 -5.39)"/></g><g class="cls-33"><path class="cls-34" d="M176,67.76V56.7h67.58a1.23,1.23,0,0,1,1.23,1.23v8.6a1.23,1.23,0,0,1-1.23,1.23Z" transform="translate(-14.03 -5.39)"/></g><g class="cls-33"><path class="cls-34" d="M176,50.56V39.5h44.23a1.23,1.23,0,0,1,1.23,1.23v8.6a1.23,1.23,0,0,1-1.23,1.23Z" transform="translate(-14.03 -5.39)"/></g><g class="cls-33"><path class="cls-34" d="M176,34V22.91h22.12a1.23,1.23,0,0,1,1.23,1.23v8.6A1.23,1.23,0,0,1,198.15,34Z" transform="translate(-14.03 -5.39)"/></g><g class="cls-33"><path class="cls-34" d="M176,17.38v-11h9.22a1.23,1.23,0,0,1,1.23,1.23v8.6a1.23,1.23,0,0,1-1.23,1.22Z" transform="translate(-14.03 -5.39)"/></g></g></g></svg>