<svg xmlns="http://www.w3.org/2000/svg" xmlns:xlink="http://www.w3.org/1999/xlink" viewBox="0 0 321.59 237.76"><defs><style>.cls-1{fill:none;}.cls-2{font-size:12px;}.cls-12,.cls-15,.cls-18,.cls-19,.cls-2,.cls-36,.cls-6{fill:#231f20;font-family:Futura-Medium, Futura;font-weight:500;}.cls-3{letter-spacing:-0.08em;}.cls-4{letter-spacing:-0.06em;}.cls-5{letter-spacing:-0.08em;}.cls-12,.cls-15,.cls-18,.cls-36,.cls-6{font-size:9px;}.cls-13,.cls-6{letter-spacing:-0.03em;}.cls-18,.cls-7{letter-spacing:-0.03em;}.cls-8{letter-spacing:-0.04em;}.cls-9{letter-spacing:-0.16em;}.cls-10{letter-spacing:-0.04em;}.cls-11{letter-spacing:-0.05em;}.cls-12{letter-spacing:-0.11em;}.cls-14{letter-spacing:-0.04em;}.cls-15,.cls-37{letter-spacing:-0.11em;}.cls-16{letter-spacing:-0.12em;}.cls-17{letter-spacing:-0.03em;}.cls-19{font-size:10px;letter-spacing:-0.08em;}.cls-20{letter-spacing:-0.03em;}.cls-21{letter-spacing:-0.02em;}.cls-22{letter-spacing:-0.03em;}.cls-23{letter-spacing:-0.06em;}.cls-24{letter-spacing:-0.16em;}.cls-25{letter-spacing:-0.03em;}.cls-26{letter-spacing:-0.06em;}.cls-27{letter-spacing:-0.11em;}.cls-28{letter-spacing:-0.11em;}.cls-29{letter-spacing:-0.06em;}.cls-30{clip-path:url(#clip-path);}.cls-31{fill:#207b8d;}.cls-32{clip-path:url(#clip-path-13);}.cls-33{fill:#b83350;}.cls-34{clip-path:url(#clip-path-14);}.cls-35{fill:#fff;}.cls-36{letter-spacing:-0.09em;}</style><clipPath id="clip-path" transform="translate(-60.48 -3.38)"><rect class="cls-1" y="0.62" width="344.37" height="204.05"/></clipPath><clipPath id="clip-path-13" transform="translate(-60.48 -3.38)"><rect class="cls-1" x="46.78" y="0.81" width="343.77" height="203.69"/></clipPath><clipPath id="clip-path-14" transform="translate(-60.48 -3.38)"><rect class="cls-1" x="46.78" width="343.77" height="203.69"/></clipPath></defs><g id="Layer_2" data-name="Layer 2"><g id="Layer_1-2" data-name="Layer 1"><text class="cls-2" transform="translate(120.3 213.4)">2<tspan class="cls-3" x="7.41" y="0">0</tspan><tspan class="cls-4" x="13.89" y="0">1</tspan><tspan x="20.57" y="0">0</tspan></text><text class="cls-2" transform="translate(191.41 213.4)">2<tspan class="cls-3" x="7.41" y="0">0</tspan><tspan class="cls-5" x="13.89" y="0">1</tspan><tspan x="20.32" y="0">9</tspan></text><text class="cls-6" transform="translate(148.16 11.48)">85 &amp; older</text><text class="cls-6" transform="translate(151.54 28.82)">75 <tspan class="cls-7" x="13.02" y="0">t</tspan><tspan x="15.26" y="0">o </tspan><tspan class="cls-8" x="22.87" y="0">8</tspan><tspan x="28.02" y="0">4</tspan></text><text class="cls-6" transform="translate(151.54 44.87)">65 <tspan class="cls-7" x="13.02" y="0">t</tspan><tspan x="15.26" y="0">o </tspan><tspan class="cls-9" x="22.87" y="0">7</tspan><tspan x="27.01" y="0">4</tspan></text><text class="cls-6" transform="translate(150.73 61.5)">55 <tspan class="cls-7" x="13.02" y="0">t</tspan><tspan x="15.26" y="0">o </tspan><tspan class="cls-10" x="22.87" y="0">6</tspan><tspan x="28.06" y="0">4</tspan></text><text class="cls-6" transform="translate(151.54 79.11)">45 <tspan class="cls-7" x="13.02" y="0">t</tspan><tspan x="15.26" y="0">o </tspan><tspan class="cls-11" x="22.87" y="0">5</tspan><tspan x="27.93" y="0">4</tspan></text><text class="cls-6" transform="translate(151.99 95.49)">35 <tspan class="cls-7" x="13.02" y="0">t</tspan><tspan x="15.26" y="0">o 44</tspan></text><text class="cls-6" transform="translate(151.77 112.51)">25 <tspan class="cls-7" x="13.02" y="0">t</tspan><tspan x="15.26" y="0">o </tspan><tspan class="cls-11" x="22.87" y="0">3</tspan><tspan x="27.93" y="0">4</tspan></text><text class="cls-12" transform="translate(151.77 128.05)">1<tspan class="cls-13" x="4.59" y="0">8 </tspan><tspan class="cls-7" x="12.35" y="0">t</tspan><tspan class="cls-13" x="14.58" y="0">o </tspan><tspan class="cls-14" x="22.19" y="0">2</tspan><tspan class="cls-13" x="27.4" y="0">4</tspan></text><text class="cls-15" transform="translate(151.77 144.75)">1<tspan class="cls-13" x="4.55" y="0">5 </tspan><tspan class="cls-7" x="12.31" y="0">t</tspan><tspan class="cls-13" x="14.55" y="0">o </tspan><tspan class="cls-16" x="22.16" y="0">1</tspan><tspan class="cls-13" x="26.59" y="0">7</tspan></text><text class="cls-6" transform="translate(154.46 178.94)">5 <tspan class="cls-17" x="7.76" y="0">t</tspan><tspan x="9.99" y="0">o 9</tspan></text><text class="cls-18" transform="translate(150.73 194.37)">U<tspan class="cls-13" x="6.42" y="0">nder 5</tspan></text><text class="cls-19" transform="translate(190.69 226.45)">T<tspan class="cls-20" x="4.06" y="0">o</tspan><tspan class="cls-21" x="9.8" y="0">t</tspan><tspan class="cls-22" x="12.31" y="0">al population: </tspan><tspan class="cls-23" x="73.91" y="0">2</tspan><tspan class="cls-24" x="79.5" y="0">7</tspan><tspan class="cls-25" x="84.07" y="0">,8</tspan><tspan class="cls-26" x="92.69" y="0">2</tspan><tspan class="cls-25" x="98.28" y="0">7</tspan></text><text class="cls-19" transform="translate(44.38 224.85)">T<tspan class="cls-20" x="4.06" y="0">o</tspan><tspan class="cls-21" x="9.8" y="0">t</tspan><tspan class="cls-22" x="12.31" y="0">al population: 36</tspan><tspan class="cls-27" x="85.61" y="0">,</tspan><tspan class="cls-28" x="87.65" y="0">1</tspan><tspan class="cls-29" x="92.71" y="0">5</tspan><tspan class="cls-25" x="98.25" y="0">7</tspan></text><g class="cls-30"><path class="cls-31" d="M206.71,199.43V188.87h-65.8v10.56Z" transform="translate(-60.48 -3.38)"/></g><g class="cls-30"><path class="cls-31" d="M206.71,182.37V171.81H130.35v10.56Z" transform="translate(-60.48 -3.38)"/></g><g class="cls-30"><path class="cls-31" d="M206.71,166.12V155.56H123v10.56Z" transform="translate(-60.48 -3.38)"/></g><g class="cls-30"><path class="cls-31" d="M206.71,149.87V139.31H140.1v10.56Z" transform="translate(-60.48 -3.38)"/></g><g class="cls-30"><path class="cls-31" d="M206.71,132.81V122.25H105.16v10.56Z" transform="translate(-60.48 -3.38)"/></g><g class="cls-30"><path class="cls-31" d="M206.71,116.56V106H99.48v10.56Z" transform="translate(-60.48 -3.38)"/></g><g class="cls-30"><path class="cls-31" d="M206.71,100.32V89.75H109.23v10.57Z" transform="translate(-60.48 -3.38)"/></g><g class="cls-30"><path class="cls-31" d="M206.71,83.26V72.69H60.48V83.26Z" transform="translate(-60.48 -3.38)"/></g><g class="cls-30"><path class="cls-31" d="M206.71,67V56.45H109.23V67Z" transform="translate(-60.48 -3.38)"/></g><g class="cls-30"><path class="cls-31" d="M206.71,50.76V40.2H135.22V50.76Z" transform="translate(-60.48 -3.38)"/></g><g class="cls-30"><path class="cls-31" d="M206.71,33.7V23.14H143.35V33.7Z" transform="translate(-60.48 -3.38)"/></g><g class="cls-30"><path class="cls-31" d="M206.71,17.45V6.89H186.4V17.45Z" transform="translate(-60.48 -3.38)"/></g><g class="cls-32"><path class="cls-33" d="M253.13,199.27V188.72h47a1.63,1.63,0,0,1,1.62,1.63v7.29a1.63,1.63,0,0,1-1.62,1.63Z" transform="translate(-60.48 -3.38)"/></g><g class="cls-34"><path class="cls-33" d="M253.13,181.43V170.88h46.23A1.63,1.63,0,0,1,301,172.5v7.3a1.63,1.63,0,0,1-1.62,1.63Z" transform="translate(-60.48 -3.38)"/></g><g class="cls-34"><path class="cls-33" d="M253.13,165.21V154.66h51.09a1.62,1.62,0,0,1,1.62,1.63v7.29a1.62,1.62,0,0,1-1.62,1.63Z" transform="translate(-60.48 -3.38)"/></g><g class="cls-34"><path class="cls-33" d="M253.13,149V138.44h30a1.63,1.63,0,0,1,1.62,1.63v7.29a1.63,1.63,0,0,1-1.62,1.63Z" transform="translate(-60.48 -3.38)"/></g><g class="cls-34"><path class="cls-33" d="M253.13,132V121.41H318a1.62,1.62,0,0,1,1.62,1.63v7.29A1.62,1.62,0,0,1,318,132Z" transform="translate(-60.48 -3.38)"/></g><g class="cls-34"><path class="cls-33" d="M253.13,115.74V105.19H344a1.62,1.62,0,0,1,1.62,1.63v7.3a1.62,1.62,0,0,1-1.62,1.62Z" transform="translate(-60.48 -3.38)"/></g><g class="cls-34"><path class="cls-33" d="M253.13,99.52V89h68.93a1.62,1.62,0,0,1,1.63,1.62v7.3a1.63,1.63,0,0,1-1.63,1.62Z" transform="translate(-60.48 -3.38)"/></g><g class="cls-34"><path class="cls-33" d="M253.13,82.49V72h89.21A1.62,1.62,0,0,1,344,73.57v7.3a1.63,1.63,0,0,1-1.62,1.62Z" transform="translate(-60.48 -3.38)"/></g><g class="cls-34"><path class="cls-33" d="M253.13,66.27V55.73H380.45a1.62,1.62,0,0,1,1.63,1.62v7.3a1.63,1.63,0,0,1-1.63,1.62Z" transform="translate(-60.48 -3.38)"/></g><g class="cls-34"><path class="cls-33" d="M253.13,50.05V39.51H318a1.61,1.61,0,0,1,1.62,1.62v7.3A1.62,1.62,0,0,1,318,50.05Z" transform="translate(-60.48 -3.38)"/></g><g class="cls-34"><path class="cls-33" d="M253.13,33V22.48h41.36a1.61,1.61,0,0,1,1.62,1.62v7.3A1.62,1.62,0,0,1,294.49,33Z" transform="translate(-60.48 -3.38)"/></g><g class="cls-34"><path class="cls-33" d="M253.13,16.8V6.26h22.71a1.61,1.61,0,0,1,1.62,1.62v7.3a1.62,1.62,0,0,1-1.62,1.62Z" transform="translate(-60.48 -3.38)"/></g><rect class="cls-35" x="216.24" width="2.26" height="16.49"/><rect class="cls-35" x="234.24" y="15" width="2.26" height="16.49"/><rect class="cls-35" x="258.24" y="33" width="2.26" height="16.49"/><rect class="cls-35" x="282.24" y="66" width="2.26" height="16.49"/><rect class="cls-35" x="262.24" y="82" width="2.26" height="16.49"/><rect class="cls-35" x="284.24" y="99" width="2.26" height="16.49"/><rect class="cls-35" x="258.24" y="116" width="2.26" height="16.49"/><rect class="cls-35" x="223.24" y="133" width="2.26" height="16.49"/><rect class="cls-35" x="244.24" y="148" width="2.26" height="16.49"/><rect class="cls-35" x="239.24" y="165" width="2.26" height="16.49"/><rect class="cls-35" x="240.24" y="183" width="2.26" height="16.49"/><text class="cls-36" transform="translate(152.04 161.48)">1<tspan class="cls-13" x="4.73" y="0">0 </tspan><tspan class="cls-7" x="12.48" y="0">t</tspan><tspan class="cls-13" x="14.72" y="0">o </tspan><tspan class="cls-37" x="22.33" y="0">1</tspan><tspan class="cls-13" x="26.88" y="0">4</tspan></text></g></g></svg>