<svg xmlns="http://www.w3.org/2000/svg" xmlns:xlink="http://www.w3.org/1999/xlink" viewBox="0 0 302.35 238.67"><defs><style>.cls-1{fill:none;}.cls-2{font-size:12px;}.cls-12,.cls-15,.cls-18,.cls-19,.cls-2,.cls-36,.cls-6{fill:#231f20;font-family:Futura-Medium, Futura;font-weight:500;}.cls-3{letter-spacing:-0.08em;}.cls-4{letter-spacing:-0.06em;}.cls-5{letter-spacing:-0.08em;}.cls-12,.cls-15,.cls-18,.cls-36,.cls-6{font-size:9px;}.cls-13,.cls-6{letter-spacing:-0.03em;}.cls-18,.cls-7{letter-spacing:-0.03em;}.cls-8{letter-spacing:-0.04em;}.cls-9{letter-spacing:-0.16em;}.cls-10{letter-spacing:-0.04em;}.cls-11{letter-spacing:-0.05em;}.cls-12{letter-spacing:-0.11em;}.cls-14{letter-spacing:-0.04em;}.cls-15,.cls-37{letter-spacing:-0.11em;}.cls-16{letter-spacing:-0.12em;}.cls-17{letter-spacing:-0.03em;}.cls-19{font-size:10px;letter-spacing:-0.08em;}.cls-20{letter-spacing:-0.03em;}.cls-21{letter-spacing:-0.02em;}.cls-22{letter-spacing:-0.03em;}.cls-23{letter-spacing:-0.11em;}.cls-24{letter-spacing:-0.06em;}.cls-25{letter-spacing:-0.02em;}.cls-26{letter-spacing:-0.03em;}.cls-27{letter-spacing:-0.1em;}.cls-28{letter-spacing:-0.06em;}.cls-29{clip-path:url(#clip-path);}.cls-30{fill:#207b8d;}.cls-31{clip-path:url(#clip-path-13);}.cls-32{fill:#b83350;}.cls-33{clip-path:url(#clip-path-14);}.cls-34{clip-path:url(#clip-path-23);}.cls-35{fill:#fff;}.cls-36{letter-spacing:-0.09em;}</style><clipPath id="clip-path" transform="translate(-60.13 -5.97)"><rect class="cls-1" y="2.88" width="347.04" height="205.63"/></clipPath><clipPath id="clip-path-13" transform="translate(-60.13 -5.97)"><rect class="cls-1" x="45" width="351.89" height="208.5"/></clipPath><clipPath id="clip-path-14" transform="translate(-60.13 -5.97)"><rect class="cls-1" x="45" y="2" width="351.89" height="208.5"/></clipPath><clipPath id="clip-path-23" transform="translate(-60.13 -5.97)"><rect class="cls-1" x="45" y="3" width="351.89" height="208.5"/></clipPath></defs><g id="Layer_2" data-name="Layer 2"><g id="Layer_1-2" data-name="Layer 1"><text class="cls-2" transform="translate(87.55 214.3)">2<tspan class="cls-3" x="7.41" y="0">0</tspan><tspan class="cls-4" x="13.89" y="0">1</tspan><tspan x="20.57" y="0">0</tspan></text><text class="cls-2" transform="translate(158.66 214.3)">2<tspan class="cls-3" x="7.41" y="0">0</tspan><tspan class="cls-5" x="13.89" y="0">1</tspan><tspan x="20.32" y="0">9</tspan></text><text class="cls-6" transform="translate(115.41 12.39)">85 &amp; older</text><text class="cls-6" transform="translate(118.79 29.73)">75 <tspan class="cls-7" x="13.02" y="0">t</tspan><tspan x="15.26" y="0">o </tspan><tspan class="cls-8" x="22.87" y="0">8</tspan><tspan x="28.02" y="0">4</tspan></text><text class="cls-6" transform="translate(118.79 45.78)">65 <tspan class="cls-7" x="13.02" y="0">t</tspan><tspan x="15.26" y="0">o </tspan><tspan class="cls-9" x="22.87" y="0">7</tspan><tspan x="27.01" y="0">4</tspan></text><text class="cls-6" transform="translate(117.98 62.41)">55 <tspan class="cls-7" x="13.02" y="0">t</tspan><tspan x="15.26" y="0">o </tspan><tspan class="cls-10" x="22.87" y="0">6</tspan><tspan x="28.06" y="0">4</tspan></text><text class="cls-6" transform="translate(118.79 80.02)">45 <tspan class="cls-7" x="13.02" y="0">t</tspan><tspan x="15.26" y="0">o </tspan><tspan class="cls-11" x="22.87" y="0">5</tspan><tspan x="27.93" y="0">4</tspan></text><text class="cls-6" transform="translate(119.25 96.4)">35 <tspan class="cls-7" x="13.02" y="0">t</tspan><tspan x="15.26" y="0">o 44</tspan></text><text class="cls-6" transform="translate(119.02 113.42)">25 <tspan class="cls-7" x="13.02" y="0">t</tspan><tspan x="15.26" y="0">o </tspan><tspan class="cls-11" x="22.87" y="0">3</tspan><tspan x="27.93" y="0">4</tspan></text><text class="cls-12" transform="translate(119.02 128.96)">1<tspan class="cls-13" x="4.59" y="0">8 </tspan><tspan class="cls-7" x="12.35" y="0">t</tspan><tspan class="cls-13" x="14.58" y="0">o </tspan><tspan class="cls-14" x="22.19" y="0">2</tspan><tspan class="cls-13" x="27.4" y="0">4</tspan></text><text class="cls-15" transform="translate(119.02 145.66)">1<tspan class="cls-13" x="4.55" y="0">5 </tspan><tspan class="cls-7" x="12.31" y="0">t</tspan><tspan class="cls-13" x="14.55" y="0">o </tspan><tspan class="cls-16" x="22.16" y="0">1</tspan><tspan class="cls-13" x="26.59" y="0">7</tspan></text><text class="cls-6" transform="translate(121.72 179.85)">5 <tspan class="cls-17" x="7.76" y="0">t</tspan><tspan x="9.99" y="0">o 9</tspan></text><text class="cls-18" transform="translate(117.98 195.27)">U<tspan class="cls-13" x="6.42" y="0">nder 5</tspan></text><text class="cls-19" transform="translate(157.95 227.36)">T<tspan class="cls-20" x="4.06" y="0">o</tspan><tspan class="cls-21" x="9.8" y="0">t</tspan><tspan class="cls-22" x="12.31" y="0">al population: </tspan><tspan class="cls-23" x="73.91" y="0">1</tspan><tspan class="cls-22" x="78.97" y="0">4,</tspan><tspan class="cls-24" x="87.59" y="0">2</tspan><tspan class="cls-25" x="93.18" y="0">7</tspan><tspan class="cls-26" x="99.17" y="0">7</tspan></text><text class="cls-19" transform="translate(10.85 225.75)">T<tspan class="cls-20" x="4.06" y="0">o</tspan><tspan class="cls-21" x="9.8" y="0">t</tspan><tspan class="cls-22" x="12.31" y="0">al population: </tspan><tspan class="cls-27" x="73.91" y="0">1</tspan><tspan class="cls-22" x="79.04" y="0">3,9</tspan><tspan class="cls-28" x="93.51" y="0">0</tspan><tspan class="cls-26" x="99.04" y="0">7</tspan></text><g class="cls-29"><path class="cls-30" d="M173.11,203.22V192.58H154.28v10.64Z" transform="translate(-60.13 -5.97)"/></g><g class="cls-29"><path class="cls-30" d="M173.11,186V175.38H151V186Z" transform="translate(-60.13 -5.97)"/></g><g class="cls-29"><path class="cls-30" d="M173.11,169.65V159H148.55v10.64Z" transform="translate(-60.13 -5.97)"/></g><g class="cls-29"><path class="cls-30" d="M173.11,153.28V142.64H161.65v10.64Z" transform="translate(-60.13 -5.97)"/></g><g class="cls-29"><path class="cls-30" d="M173.11,136.09V125.45H128.9v10.64Z" transform="translate(-60.13 -5.97)"/></g><g class="cls-29"><path class="cls-30" d="M173.11,119.71V109.07h-113v10.64Z" transform="translate(-60.13 -5.97)"/></g><g class="cls-29"><path class="cls-30" d="M173.11,103.34V92.7H100.25v10.64Z" transform="translate(-60.13 -5.97)"/></g><g class="cls-29"><path class="cls-30" d="M173.11,86.15V75.51H101.88V86.15Z" transform="translate(-60.13 -5.97)"/></g><g class="cls-29"><path class="cls-30" d="M173.11,69.78V59.13H119.9V69.78Z" transform="translate(-60.13 -5.97)"/></g><g class="cls-29"><path class="cls-30" d="M173.11,53.4V42.76H148.55V53.4Z" transform="translate(-60.13 -5.97)"/></g><g class="cls-29"><path class="cls-30" d="M173.11,36.21V25.57H159.19V36.21Z" transform="translate(-60.13 -5.97)"/></g><g class="cls-29"><path class="cls-30" d="M173.11,19.84V9.19h-8.19V19.84Z" transform="translate(-60.13 -5.97)"/></g><g class="cls-31"><path class="cls-32" d="M220.53,203.15v-10.8h38.19a1.67,1.67,0,0,1,1.66,1.66v7.48a1.67,1.67,0,0,1-1.66,1.66Z" transform="translate(-60.13 -5.97)"/></g><g class="cls-33"><path class="cls-32" d="M220.53,187.71V176.92h19.09a1.66,1.66,0,0,1,1.66,1.66v7.47a1.66,1.66,0,0,1-1.66,1.66Z" transform="translate(-60.13 -5.97)"/></g><g class="cls-33"><path class="cls-32" d="M220.53,171.11V160.32H233a1.66,1.66,0,0,1,1.66,1.66v7.47a1.66,1.66,0,0,1-1.66,1.66Z" transform="translate(-60.13 -5.97)"/></g><g class="cls-33"><path class="cls-32" d="M220.53,154.51V143.72h6.64a1.66,1.66,0,0,1,1.66,1.66v7.47a1.66,1.66,0,0,1-1.66,1.66Z" transform="translate(-60.13 -5.97)"/></g><g class="cls-33"><path class="cls-32" d="M220.53,137.08v-10.8h27.39a1.66,1.66,0,0,1,1.66,1.66v7.48a1.66,1.66,0,0,1-1.66,1.66Z" transform="translate(-60.13 -5.97)"/></g><g class="cls-33"><path class="cls-32" d="M220.53,120.47V109.68H360.82a1.66,1.66,0,0,1,1.66,1.66v7.47a1.66,1.66,0,0,1-1.66,1.66Z" transform="translate(-60.13 -5.97)"/></g><g class="cls-33"><path class="cls-32" d="M220.53,103.87V93.08h73.88a1.66,1.66,0,0,1,1.66,1.66v7.47a1.66,1.66,0,0,1-1.66,1.66Z" transform="translate(-60.13 -5.97)"/></g><g class="cls-33"><path class="cls-32" d="M220.53,86.44V75.65H272a1.66,1.66,0,0,1,1.66,1.66v7.47A1.66,1.66,0,0,1,272,86.44Z" transform="translate(-60.13 -5.97)"/></g><g class="cls-33"><path class="cls-32" d="M220.53,69.84V59h63.09a1.66,1.66,0,0,1,1.66,1.66v7.47a1.66,1.66,0,0,1-1.66,1.67Z" transform="translate(-60.13 -5.97)"/></g><g class="cls-33"><path class="cls-32" d="M220.53,53.23V42.44h33.21a1.66,1.66,0,0,1,1.66,1.66v7.47a1.66,1.66,0,0,1-1.66,1.66Z" transform="translate(-60.13 -5.97)"/></g><g class="cls-34"><path class="cls-32" d="M220.53,36.8V26h14.11a1.66,1.66,0,0,1,1.66,1.66v7.47a1.66,1.66,0,0,1-1.66,1.66Z" transform="translate(-60.13 -5.97)"/></g><g class="cls-34"><path class="cls-32" d="M220.53,20.2V9.41h6.64a1.66,1.66,0,0,1,1.66,1.66v7.47a1.66,1.66,0,0,1-1.66,1.66Z" transform="translate(-60.13 -5.97)"/></g><rect class="cls-35" x="167.51" width="2.26" height="16.49"/><rect class="cls-35" x="174.51" y="18" width="2.26" height="16.49"/><rect class="cls-35" x="193.51" y="32" width="2.26" height="16.49"/><rect class="cls-35" x="224.51" y="50" width="2.26" height="16.49"/><rect class="cls-35" x="212.51" y="66" width="2.26" height="16.49"/><rect class="cls-35" x="234.51" y="84" width="2.26" height="16.49"/><rect class="cls-35" x="188.51" y="118" width="2.26" height="16.49"/><rect class="cls-35" x="167.51" y="136" width="2.26" height="16.49"/><rect class="cls-35" x="173.39" y="152.05" width="2.26" height="16.49"/><rect class="cls-35" x="180.39" y="168.05" width="2.26" height="16.49"/><rect class="cls-35" x="199.39" y="183.05" width="2.26" height="16.49"/><text class="cls-36" transform="translate(118.79 163.57)">1<tspan class="cls-13" x="4.73" y="0">0 </tspan><tspan class="cls-7" x="12.48" y="0">t</tspan><tspan class="cls-13" x="14.72" y="0">o </tspan><tspan class="cls-37" x="22.33" y="0">1</tspan><tspan class="cls-13" x="26.88" y="0">4</tspan></text></g></g></svg>