<svg xmlns="http://www.w3.org/2000/svg" xmlns:xlink="http://www.w3.org/1999/xlink" viewBox="0 0 307.71 238.2"><defs><style>.cls-1{fill:none;}.cls-2{font-size:12px;}.cls-12,.cls-15,.cls-18,.cls-19,.cls-2,.cls-36,.cls-6{fill:#231f20;font-family:Futura-Medium, Futura;font-weight:500;}.cls-3{letter-spacing:-0.08em;}.cls-4{letter-spacing:-0.06em;}.cls-5{letter-spacing:-0.08em;}.cls-12,.cls-15,.cls-18,.cls-36,.cls-6{font-size:9px;}.cls-13,.cls-6{letter-spacing:-0.03em;}.cls-18,.cls-7{letter-spacing:-0.03em;}.cls-8{letter-spacing:-0.04em;}.cls-9{letter-spacing:-0.16em;}.cls-10{letter-spacing:-0.04em;}.cls-11{letter-spacing:-0.05em;}.cls-12{letter-spacing:-0.11em;}.cls-14{letter-spacing:-0.04em;}.cls-15,.cls-37{letter-spacing:-0.11em;}.cls-16{letter-spacing:-0.12em;}.cls-17{letter-spacing:-0.03em;}.cls-19{font-size:10px;letter-spacing:-0.08em;}.cls-20{letter-spacing:-0.03em;}.cls-21{letter-spacing:-0.02em;}.cls-22{letter-spacing:-0.03em;}.cls-23{letter-spacing:-0.1em;}.cls-24{letter-spacing:-0.11em;}.cls-25{letter-spacing:-0.03em;}.cls-26{clip-path:url(#clip-path);}.cls-27{fill:#207b8d;}.cls-28{clip-path:url(#clip-path-13);}.cls-29{fill:#b83350;}.cls-30{clip-path:url(#clip-path-14);}.cls-31{clip-path:url(#clip-path-15);}.cls-32{clip-path:url(#clip-path-17);}.cls-33{clip-path:url(#clip-path-19);}.cls-34{clip-path:url(#clip-path-23);}.cls-35{fill:#fff;}.cls-36{letter-spacing:-0.09em;}</style><clipPath id="clip-path" transform="translate(-49.29 -10.46)"><rect class="cls-1" y="6.42" width="351.43" height="208.22"/></clipPath><clipPath id="clip-path-13" transform="translate(-49.29 -10.46)"><rect class="cls-1" x="42.53" width="358.88" height="212.64"/></clipPath><clipPath id="clip-path-14" transform="translate(-49.29 -10.46)"><rect class="cls-1" x="42.53" y="3" width="358.88" height="212.64"/></clipPath><clipPath id="clip-path-15" transform="translate(-49.29 -10.46)"><rect class="cls-1" x="42.53" y="4" width="358.88" height="212.64"/></clipPath><clipPath id="clip-path-17" transform="translate(-49.29 -10.46)"><rect class="cls-1" x="42.53" y="5" width="358.88" height="212.64"/></clipPath><clipPath id="clip-path-19" transform="translate(-49.29 -10.46)"><rect class="cls-1" x="42.53" y="6" width="358.88" height="212.64"/></clipPath><clipPath id="clip-path-23" transform="translate(-49.29 -10.46)"><rect class="cls-1" x="42.53" y="7" width="358.88" height="212.64"/></clipPath></defs><g id="Layer_2" data-name="Layer 2"><g id="Layer_1-2" data-name="Layer 1"><text class="cls-2" transform="translate(99.61 213.84)">2<tspan class="cls-3" x="7.41" y="0">0</tspan><tspan class="cls-4" x="13.89" y="0">1</tspan><tspan x="20.57" y="0">0</tspan></text><text class="cls-2" transform="translate(170.73 213.84)">2<tspan class="cls-3" x="7.41" y="0">0</tspan><tspan class="cls-5" x="13.89" y="0">1</tspan><tspan x="20.32" y="0">9</tspan></text><text class="cls-6" transform="translate(127.48 11.92)">85 &amp; older</text><text class="cls-6" transform="translate(130.86 29.26)">75 <tspan class="cls-7" x="13.02" y="0">t</tspan><tspan x="15.26" y="0">o </tspan><tspan class="cls-8" x="22.87" y="0">8</tspan><tspan x="28.02" y="0">4</tspan></text><text class="cls-6" transform="translate(130.86 45.31)">65 <tspan class="cls-7" x="13.02" y="0">t</tspan><tspan x="15.26" y="0">o </tspan><tspan class="cls-9" x="22.87" y="0">7</tspan><tspan x="27.01" y="0">4</tspan></text><text class="cls-6" transform="translate(130.05 61.95)">55 <tspan class="cls-7" x="13.02" y="0">t</tspan><tspan x="15.26" y="0">o </tspan><tspan class="cls-10" x="22.87" y="0">6</tspan><tspan x="28.06" y="0">4</tspan></text><text class="cls-6" transform="translate(130.86 79.55)">45 <tspan class="cls-7" x="13.02" y="0">t</tspan><tspan x="15.26" y="0">o </tspan><tspan class="cls-11" x="22.87" y="0">5</tspan><tspan x="27.93" y="0">4</tspan></text><text class="cls-6" transform="translate(131.31 95.93)">35 <tspan class="cls-7" x="13.02" y="0">t</tspan><tspan x="15.26" y="0">o 44</tspan></text><text class="cls-6" transform="translate(131.09 112.95)">25 <tspan class="cls-7" x="13.02" y="0">t</tspan><tspan x="15.26" y="0">o </tspan><tspan class="cls-11" x="22.87" y="0">3</tspan><tspan x="27.93" y="0">4</tspan></text><text class="cls-12" transform="translate(131.09 128.49)">1<tspan class="cls-13" x="4.59" y="0">8 </tspan><tspan class="cls-7" x="12.35" y="0">t</tspan><tspan class="cls-13" x="14.58" y="0">o </tspan><tspan class="cls-14" x="22.19" y="0">2</tspan><tspan class="cls-13" x="27.4" y="0">4</tspan></text><text class="cls-15" transform="translate(131.09 145.19)">1<tspan class="cls-13" x="4.55" y="0">5 </tspan><tspan class="cls-7" x="12.31" y="0">t</tspan><tspan class="cls-13" x="14.55" y="0">o </tspan><tspan class="cls-16" x="22.16" y="0">1</tspan><tspan class="cls-13" x="26.59" y="0">7</tspan></text><text class="cls-6" transform="translate(133.78 179.39)">5 <tspan class="cls-17" x="7.76" y="0">t</tspan><tspan x="9.99" y="0">o 9</tspan></text><text class="cls-18" transform="translate(130.05 194.81)">U<tspan class="cls-13" x="6.42" y="0">nder 5</tspan></text><text class="cls-19" transform="translate(170.01 226.89)">T<tspan class="cls-20" x="4.06" y="0">o</tspan><tspan class="cls-21" x="9.8" y="0">t</tspan><tspan class="cls-22" x="12.31" y="0">al population: </tspan><tspan class="cls-23" x="73.91" y="0">1</tspan><tspan class="cls-22" x="79.04" y="0">3,0</tspan><tspan class="cls-24" x="93.51" y="0">8</tspan><tspan class="cls-25" x="98.56" y="0">1</tspan></text><text class="cls-19" transform="translate(22.59 225.29)">T<tspan class="cls-20" x="4.06" y="0">o</tspan><tspan class="cls-21" x="9.8" y="0">t</tspan><tspan class="cls-22" x="12.31" y="0">al population: </tspan><tspan class="cls-23" x="73.91" y="0">1</tspan><tspan class="cls-22" x="79.04" y="0">3,783</tspan></text><g class="cls-26"><path class="cls-27" d="M175.3,209.29V198.52h-29v10.77Z" transform="translate(-49.29 -10.46)"/></g><g class="cls-26"><path class="cls-27" d="M175.3,191.88V181.11h-29v10.77Z" transform="translate(-49.29 -10.46)"/></g><g class="cls-26"><path class="cls-27" d="M175.3,175.3V164.53h-29V175.3Z" transform="translate(-49.29 -10.46)"/></g><g class="cls-26"><path class="cls-27" d="M175.3,158.72V148H157.89v10.77Z" transform="translate(-49.29 -10.46)"/></g><g class="cls-26"><path class="cls-27" d="M175.3,141.31V130.54H114v10.77Z" transform="translate(-49.29 -10.46)"/></g><g class="cls-26"><path class="cls-27" d="M175.3,124.73V114h-126v10.77Z" transform="translate(-49.29 -10.46)"/></g><g class="cls-26"><path class="cls-27" d="M175.3,108.15V97.37H89.08v10.78Z" transform="translate(-49.29 -10.46)"/></g><g class="cls-26"><path class="cls-27" d="M175.3,90.74V80H86.59V90.74Z" transform="translate(-49.29 -10.46)"/></g><g class="cls-26"><path class="cls-27" d="M175.3,74.16V63.38H103.17V74.16Z" transform="translate(-49.29 -10.46)"/></g><g class="cls-26"><path class="cls-27" d="M175.3,57.58V46.8H145.45V57.58Z" transform="translate(-49.29 -10.46)"/></g><g class="cls-26"><path class="cls-27" d="M175.3,40.17V29.39H152.09V40.17Z" transform="translate(-49.29 -10.46)"/></g><g class="cls-26"><path class="cls-27" d="M175.3,23.59V12.81H167V23.59Z" transform="translate(-49.29 -10.46)"/></g><g class="cls-28"><path class="cls-29" d="M221.54,207.18v-11h31.33a1.7,1.7,0,0,1,1.69,1.7v7.62a1.69,1.69,0,0,1-1.69,1.69Z" transform="translate(-49.29 -10.46)"/></g><g class="cls-30"><path class="cls-29" d="M221.54,192.4v-11H244.4a1.68,1.68,0,0,1,1.69,1.69v7.62a1.69,1.69,0,0,1-1.69,1.69Z" transform="translate(-49.29 -10.46)"/></g><g class="cls-31"><path class="cls-29" d="M221.54,176.47v-11h21.17a1.7,1.7,0,0,1,1.69,1.7v7.62a1.69,1.69,0,0,1-1.69,1.69Z" transform="translate(-49.29 -10.46)"/></g><g class="cls-31"><path class="cls-29" d="M221.54,159.54v-11H233.4a1.69,1.69,0,0,1,1.69,1.69v7.62a1.7,1.7,0,0,1-1.69,1.7Z" transform="translate(-49.29 -10.46)"/></g><g class="cls-32"><path class="cls-29" d="M221.54,142.76v-11h28.79a1.7,1.7,0,0,1,1.69,1.7v7.61a1.7,1.7,0,0,1-1.69,1.7Z" transform="translate(-49.29 -10.46)"/></g><g class="cls-32"><path class="cls-29" d="M221.54,125.83v-11H355.31a1.69,1.69,0,0,1,1.69,1.69v7.62a1.7,1.7,0,0,1-1.69,1.7Z" transform="translate(-49.29 -10.46)"/></g><g class="cls-33"><path class="cls-29" d="M221.54,109.89v-11H320.6a1.69,1.69,0,0,1,1.69,1.69v7.62a1.69,1.69,0,0,1-1.69,1.69Z" transform="translate(-49.29 -10.46)"/></g><g class="cls-33"><path class="cls-29" d="M221.54,92.11v-11h67.73A1.69,1.69,0,0,1,291,82.8v7.62a1.68,1.68,0,0,1-1.69,1.69Z" transform="translate(-49.29 -10.46)"/></g><g class="cls-33"><path class="cls-29" d="M221.54,75.18v-11h87.2a1.69,1.69,0,0,1,1.7,1.69v7.62a1.7,1.7,0,0,1-1.7,1.69Z" transform="translate(-49.29 -10.46)"/></g><g class="cls-33"><path class="cls-29" d="M221.54,58.25v-11H269.8a1.7,1.7,0,0,1,1.69,1.7v7.62a1.69,1.69,0,0,1-1.69,1.69Z" transform="translate(-49.29 -10.46)"/></g><g class="cls-34"><path class="cls-29" d="M221.54,41.47v-11h15.24a1.68,1.68,0,0,1,1.69,1.69v7.62a1.69,1.69,0,0,1-1.69,1.69Z" transform="translate(-49.29 -10.46)"/></g><g class="cls-34"><path class="cls-29" d="M221.54,24.54v-11h3.39a1.7,1.7,0,0,1,1.69,1.7v7.62a1.69,1.69,0,0,1-1.69,1.69Z" transform="translate(-49.29 -10.46)"/></g><rect class="cls-35" x="176.55" width="2.26" height="16.49"/><rect class="cls-35" x="187.98" y="16.89" width="2.26" height="16.49"/><rect class="cls-35" x="220.98" y="34.89" width="2.26" height="16.49"/><rect class="cls-35" x="259.98" y="50.89" width="2.26" height="16.49"/><rect class="cls-35" x="240.98" y="68.89" width="2.26" height="16.49"/><rect class="cls-35" x="201.98" y="118.89" width="2.26" height="16.49"/><rect class="cls-35" x="184.98" y="134.89" width="2.26" height="16.49"/><rect class="cls-35" x="193.98" y="151.89" width="2.26" height="16.49"/><rect class="cls-35" x="195.98" y="167.89" width="2.26" height="16.49"/><rect class="cls-35" x="203.98" y="184.89" width="2.26" height="16.49"/><text class="cls-36" transform="translate(130.94 163.61)">1<tspan class="cls-13" x="4.73" y="0">0 </tspan><tspan class="cls-7" x="12.48" y="0">t</tspan><tspan class="cls-13" x="14.72" y="0">o </tspan><tspan class="cls-37" x="22.33" y="0">1</tspan><tspan class="cls-13" x="26.88" y="0">4</tspan></text></g></g></svg>