<svg xmlns="http://www.w3.org/2000/svg" xmlns:xlink="http://www.w3.org/1999/xlink" viewBox="0 0 273.82 254.14"><defs><style>.cls-1,.cls-30{fill:none;}.cls-2{font-size:12px;}.cls-12,.cls-15,.cls-18,.cls-19,.cls-2,.cls-32,.cls-6{fill:#231f20;font-family:Futura-Medium, Futura;font-weight:500;}.cls-3{letter-spacing:-0.08em;}.cls-4{letter-spacing:-0.06em;}.cls-5{letter-spacing:-0.08em;}.cls-12,.cls-15,.cls-18,.cls-32,.cls-6{font-size:9px;}.cls-13,.cls-6{letter-spacing:-0.03em;}.cls-18,.cls-7{letter-spacing:-0.03em;}.cls-8{letter-spacing:-0.04em;}.cls-9{letter-spacing:-0.16em;}.cls-10{letter-spacing:-0.04em;}.cls-11{letter-spacing:-0.05em;}.cls-12{letter-spacing:-0.11em;}.cls-14{letter-spacing:-0.04em;}.cls-15,.cls-33{letter-spacing:-0.11em;}.cls-16{letter-spacing:-0.12em;}.cls-17{letter-spacing:-0.03em;}.cls-19{font-size:10px;letter-spacing:-0.08em;}.cls-20{letter-spacing:-0.03em;}.cls-21{letter-spacing:-0.02em;}.cls-22{letter-spacing:-0.03em;}.cls-23{letter-spacing:-0.08em;}.cls-24{letter-spacing:-0.08em;}.cls-25{letter-spacing:-0.16em;}.cls-26{letter-spacing:-0.03em;}.cls-27{letter-spacing:-0.08em;}.cls-28{letter-spacing:-0.09em;}.cls-29{clip-path:url(#clip-path);}.cls-30{stroke:#010101;stroke-miterlimit:10;stroke-opacity:0;stroke-width:2px;}.cls-31{fill:#fff;}.cls-32{letter-spacing:-0.09em;}.cls-34{letter-spacing:0.03em;}.cls-35{letter-spacing:0.02em;}.cls-36{letter-spacing:0.01em;}.cls-37{letter-spacing:0.04em;}.cls-38{letter-spacing:-0.01em;}.cls-39{clip-path:url(#clip-path-16);}.cls-40{clip-path:url(#clip-path-17);}.cls-41{fill:#207b8d;}.cls-42{fill:#b83350;}</style><clipPath id="clip-path" transform="translate(-14.03)"><rect class="cls-1" y="13.2" width="350.78" height="207.84"/></clipPath><clipPath id="clip-path-16" transform="translate(-14.03)"><rect class="cls-1" x="67.53" y="12.04" width="212.6" height="208.66"/></clipPath><clipPath id="clip-path-17" transform="translate(-14.03)"><rect class="cls-1" x="21.47" y="13.04" width="211.6" height="207.68"/></clipPath></defs><g id="Layer_2" data-name="Layer 2"><g id="Layer_1-2" data-name="Layer 1"><text class="cls-2" transform="translate(87.46 229.77)">2<tspan class="cls-3" x="7.41" y="0">0</tspan><tspan class="cls-4" x="13.89" y="0">1</tspan><tspan x="20.57" y="0">0</tspan></text><text class="cls-2" transform="translate(158.57 229.77)">2<tspan class="cls-3" x="7.41" y="0">0</tspan><tspan class="cls-5" x="13.89" y="0">1</tspan><tspan x="20.32" y="0">9</tspan></text><text class="cls-6" transform="translate(115.32 27.85)">85 &amp; older</text><text class="cls-6" transform="translate(118.7 45.2)">75 <tspan class="cls-7" x="13.02" y="0">t</tspan><tspan x="15.26" y="0">o </tspan><tspan class="cls-8" x="22.87" y="0">8</tspan><tspan x="28.02" y="0">4</tspan></text><text class="cls-6" transform="translate(118.7 61.25)">65 <tspan class="cls-7" x="13.02" y="0">t</tspan><tspan x="15.26" y="0">o </tspan><tspan class="cls-9" x="22.87" y="0">7</tspan><tspan x="27.01" y="0">4</tspan></text><text class="cls-6" transform="translate(117.89 77.88)">55 <tspan class="cls-7" x="13.02" y="0">t</tspan><tspan x="15.26" y="0">o </tspan><tspan class="cls-10" x="22.87" y="0">6</tspan><tspan x="28.06" y="0">4</tspan></text><text class="cls-6" transform="translate(118.7 95.49)">45 <tspan class="cls-7" x="13.02" y="0">t</tspan><tspan x="15.26" y="0">o </tspan><tspan class="cls-11" x="22.87" y="0">5</tspan><tspan x="27.93" y="0">4</tspan></text><text class="cls-6" transform="translate(119.16 111.87)">35 <tspan class="cls-7" x="13.02" y="0">t</tspan><tspan x="15.26" y="0">o 44</tspan></text><text class="cls-6" transform="translate(118.93 128.88)">25 <tspan class="cls-7" x="13.02" y="0">t</tspan><tspan x="15.26" y="0">o </tspan><tspan class="cls-11" x="22.87" y="0">3</tspan><tspan x="27.93" y="0">4</tspan></text><text class="cls-12" transform="translate(118.93 144.43)">1<tspan class="cls-13" x="4.59" y="0">8 </tspan><tspan class="cls-7" x="12.35" y="0">t</tspan><tspan class="cls-13" x="14.58" y="0">o </tspan><tspan class="cls-14" x="22.19" y="0">2</tspan><tspan class="cls-13" x="27.4" y="0">4</tspan></text><text class="cls-15" transform="translate(118.93 161.13)">1<tspan class="cls-13" x="4.55" y="0">5 </tspan><tspan class="cls-7" x="12.31" y="0">t</tspan><tspan class="cls-13" x="14.55" y="0">o </tspan><tspan class="cls-16" x="22.16" y="0">1</tspan><tspan class="cls-13" x="26.59" y="0">7</tspan></text><text class="cls-6" transform="translate(121.63 195.32)">5 <tspan class="cls-17" x="7.76" y="0">t</tspan><tspan x="9.99" y="0">o 9</tspan></text><text class="cls-18" transform="translate(117.89 210.74)">U<tspan class="cls-13" x="6.42" y="0">nder 5</tspan></text><text class="cls-19" transform="translate(157.86 242.83)">T<tspan class="cls-20" x="4.06" y="0">o</tspan><tspan class="cls-21" x="9.8" y="0">t</tspan><tspan class="cls-22" x="12.31" y="0">al population: 40,</tspan><tspan class="cls-23" x="88.38" y="0">6</tspan><tspan class="cls-22" x="93.73" y="0">70</tspan></text><text class="cls-19" transform="translate(12.45 241.22)">T<tspan class="cls-20" x="4.06" y="0">o</tspan><tspan class="cls-21" x="9.8" y="0">t</tspan><tspan class="cls-22" x="12.31" y="0">al population: </tspan><tspan class="cls-24" x="73.91" y="0">3</tspan><tspan class="cls-25" x="79.32" y="0">7</tspan><tspan class="cls-26" x="83.89" y="0">,</tspan><tspan class="cls-27" x="86.66" y="0">3</tspan><tspan class="cls-28" x="92.07" y="0">7</tspan><tspan class="cls-26" x="97.35" y="0">1</tspan></text><g class="cls-29"><path class="cls-30" d="M175,215.7V205H118.71V215.7Z" transform="translate(-14.03)"/></g><g class="cls-29"><path class="cls-30" d="M175,198.33V187.57H147.67v10.76Z" transform="translate(-14.03)"/></g><g class="cls-29"><path class="cls-30" d="M175,181.78V171H141.05v10.76Z" transform="translate(-14.03)"/></g><g class="cls-29"><path class="cls-30" d="M175,165.23V154.47H156.77v10.76Z" transform="translate(-14.03)"/></g><g class="cls-29"><path class="cls-30" d="M175,147.85V137.09H122v10.76Z" transform="translate(-14.03)"/></g><g class="cls-29"><path class="cls-30" d="M175,131.3V120.54H32.65V131.3Z" transform="translate(-14.03)"/></g><g class="cls-29"><path class="cls-30" d="M175,114.75V104H78.16v10.76Z" transform="translate(-14.03)"/></g><g class="cls-29"><path class="cls-30" d="M175,97.37V86.61H64.92V97.37Z" transform="translate(-14.03)"/></g><g class="cls-29"><path class="cls-30" d="M175,80.82V70.06H104.64V80.82Z" transform="translate(-14.03)"/></g><g class="cls-29"><path class="cls-30" d="M175,64.27V53.51H133.6V64.27Z" transform="translate(-14.03)"/></g><g class="cls-29"><path class="cls-30" d="M175,46.89V36.13H145.19V46.89Z" transform="translate(-14.03)"/></g><g class="cls-29"><path class="cls-30" d="M175,30.34V19.58H159.25V30.34Z" transform="translate(-14.03)"/></g><g class="cls-29"><path class="cls-30" d="M175,215.7V205h43.85a1.65,1.65,0,0,1,1.66,1.65v7.45a1.65,1.65,0,0,1-1.66,1.65Z" transform="translate(-14.03)"/></g><g class="cls-29"><path class="cls-30" d="M175,198.33V187.57h26.48a1.65,1.65,0,0,1,1.65,1.65v7.45a1.65,1.65,0,0,1-1.65,1.66Z" transform="translate(-14.03)"/></g><g class="cls-29"><path class="cls-30" d="M175,30.34V19.58h10.75a1.66,1.66,0,0,1,1.66,1.66v7.45a1.65,1.65,0,0,1-1.66,1.65Z" transform="translate(-14.03)"/></g><rect class="cls-31" x="171.91" y="16.39" width="2.26" height="16.49"/><text class="cls-32" transform="translate(119.54 178.84)">1<tspan class="cls-13" x="4.73" y="0">0 </tspan><tspan class="cls-7" x="12.48" y="0">t</tspan><tspan class="cls-13" x="14.72" y="0">o </tspan><tspan class="cls-33" x="22.33" y="0">1</tspan><tspan class="cls-13" x="26.88" y="0">4</tspan></text><text class="cls-2" transform="translate(77.06 10.57)">S<tspan class="cls-34" x="7" y="0">c</tspan><tspan x="13.03" y="0">hla</tspan><tspan class="cls-35" x="29.79" y="0">f</tspan><tspan class="cls-36" x="33.54" y="0">l</tspan><tspan x="36.64" y="0">y Se</tspan><tspan class="cls-37" x="60.5" y="0">r</tspan><tspan x="65.5" y="0">vice A</tspan><tspan class="cls-38" x="99.47" y="0">r</tspan><tspan x="103.88" y="0">ea</tspan></text><g class="cls-39"><path class="cls-30" d="M173.63,215V203.76H161.81V215Z" transform="translate(-14.03)"/></g><g class="cls-40"><path class="cls-41" d="M127.07,215V203.85H115.31V215Z" transform="translate(-14.03)"/></g><g class="cls-39"><path class="cls-30" d="M173.63,198.16V187h-10v11.19Z" transform="translate(-14.03)"/></g><g class="cls-40"><path class="cls-41" d="M127.07,198.28V187.14h-9.91v11.14Z" transform="translate(-14.03)"/></g><g class="cls-39"><path class="cls-30" d="M173.63,181.37v-11.2H161.81v11.2Z" transform="translate(-14.03)"/></g><g class="cls-40"><path class="cls-41" d="M127.07,181.57V170.43H115.31v11.14Z" transform="translate(-14.03)"/></g><g class="cls-39"><path class="cls-30" d="M173.63,164V152.76h-8.09V164Z" transform="translate(-14.03)"/></g><g class="cls-40"><path class="cls-41" d="M127.07,164.24V153.09h-8v11.15Z" transform="translate(-14.03)"/></g><g class="cls-39"><path class="cls-30" d="M173.63,147.16V136H73.49v11.19Z" transform="translate(-14.03)"/></g><g class="cls-40"><path class="cls-41" d="M127.07,147.52V136.38H27.41v11.14Z" transform="translate(-14.03)"/></g><g class="cls-39"><path class="cls-30" d="M173.63,130.37v-11.2H95.88v11.2Z" transform="translate(-14.03)"/></g><g class="cls-40"><path class="cls-41" d="M127.07,130.81V119.67H49.69v11.14Z" transform="translate(-14.03)"/></g><g class="cls-39"><path class="cls-30" d="M173.63,113.58v-11.2H133.82v11.2Z" transform="translate(-14.03)"/></g><g class="cls-40"><path class="cls-41" d="M127.07,114.1V103H87.45V114.1Z" transform="translate(-14.03)"/></g><g class="cls-39"><path class="cls-30" d="M173.63,96.78V85.59H124.49V96.78Z" transform="translate(-14.03)"/></g><g class="cls-40"><path class="cls-41" d="M127.07,97.38V86.24H78.17V97.38Z" transform="translate(-14.03)"/></g><g class="cls-39"><path class="cls-30" d="M173.63,80V68.8H134.44V80Z" transform="translate(-14.03)"/></g><g class="cls-40"><path class="cls-41" d="M127.07,80.67V69.53h-39V80.67Z" transform="translate(-14.03)"/></g><g class="cls-39"><path class="cls-30" d="M173.63,62.58V51.38H148.75v11.2Z" transform="translate(-14.03)"/></g><g class="cls-40"><path class="cls-41" d="M127.07,63.34V52.2H102.31V63.34Z" transform="translate(-14.03)"/></g><g class="cls-39"><path class="cls-30" d="M173.63,45.78V34.59H158.08V45.78Z" transform="translate(-14.03)"/></g><g class="cls-40"><path class="cls-41" d="M127.07,46.63V35.48H111.59V46.63Z" transform="translate(-14.03)"/></g><g class="cls-39"><path class="cls-30" d="M173.63,29V17.8h-6.85V29Z" transform="translate(-14.03)"/></g><g class="cls-40"><path class="cls-41" d="M127.07,29.91V18.77h-6.81V29.91Z" transform="translate(-14.03)"/></g><g class="cls-39"><path class="cls-30" d="M173.63,215V203.76h14.92A1.25,1.25,0,0,1,189.8,205v8.71a1.24,1.24,0,0,1-1.25,1.24Z" transform="translate(-14.03)"/></g><g class="cls-39"><path class="cls-42" d="M173.63,215V203.76h14.92A1.25,1.25,0,0,1,189.8,205v8.71a1.24,1.24,0,0,1-1.25,1.24Z" transform="translate(-14.03)"/></g><g class="cls-39"><path class="cls-30" d="M173.63,198.16V187h6.84a1.24,1.24,0,0,1,1.24,1.24v8.71a1.25,1.25,0,0,1-1.24,1.24Z" transform="translate(-14.03)"/></g><g class="cls-39"><path class="cls-42" d="M173.63,198.16V187h6.84a1.24,1.24,0,0,1,1.24,1.24v8.71a1.25,1.25,0,0,1-1.24,1.24Z" transform="translate(-14.03)"/></g><g class="cls-39"><path class="cls-30" d="M173.63,181.37v-11.2h11.81a1.25,1.25,0,0,1,1.25,1.25v8.7a1.25,1.25,0,0,1-1.25,1.25Z" transform="translate(-14.03)"/></g><g class="cls-39"><path class="cls-42" d="M173.63,181.37v-11.2h11.81a1.25,1.25,0,0,1,1.25,1.25v8.7a1.25,1.25,0,0,1-1.25,1.25Z" transform="translate(-14.03)"/></g><g class="cls-39"><path class="cls-30" d="M173.63,164V152.76h6.22a1.25,1.25,0,0,1,1.24,1.24v8.71a1.24,1.24,0,0,1-1.24,1.24Z" transform="translate(-14.03)"/></g><g class="cls-39"><path class="cls-42" d="M173.63,164V152.76h6.22a1.25,1.25,0,0,1,1.24,1.24v8.71a1.24,1.24,0,0,1-1.24,1.24Z" transform="translate(-14.03)"/></g><g class="cls-39"><path class="cls-30" d="M173.63,147.16V136h82.09a1.24,1.24,0,0,1,1.25,1.24v8.71a1.25,1.25,0,0,1-1.25,1.24Z" transform="translate(-14.03)"/></g><g class="cls-39"><path class="cls-42" d="M173.63,147.16V136h82.09a1.24,1.24,0,0,1,1.25,1.24v8.71a1.25,1.25,0,0,1-1.25,1.24Z" transform="translate(-14.03)"/></g><g class="cls-39"><path class="cls-30" d="M173.63,130.37v-11.2H276.25a1.25,1.25,0,0,1,1.24,1.25v8.71a1.25,1.25,0,0,1-1.24,1.24Z" transform="translate(-14.03)"/></g><g class="cls-39"><path class="cls-42" d="M173.63,130.37v-11.2H276.25a1.25,1.25,0,0,1,1.24,1.25v8.71a1.25,1.25,0,0,1-1.24,1.24Z" transform="translate(-14.03)"/></g><g class="cls-39"><path class="cls-30" d="M173.63,113.58v-11.2h46.64a1.25,1.25,0,0,1,1.25,1.25v8.7a1.25,1.25,0,0,1-1.25,1.25Z" transform="translate(-14.03)"/></g><g class="cls-39"><path class="cls-42" d="M173.63,113.58v-11.2h46.64a1.25,1.25,0,0,1,1.25,1.25v8.7a1.25,1.25,0,0,1-1.25,1.25Z" transform="translate(-14.03)"/></g><g class="cls-39"><path class="cls-30" d="M173.63,96.78V85.59h36.69a1.24,1.24,0,0,1,1.24,1.24v8.71a1.23,1.23,0,0,1-1.24,1.24Z" transform="translate(-14.03)"/></g><g class="cls-39"><path class="cls-42" d="M173.63,96.78V85.59h36.69a1.24,1.24,0,0,1,1.24,1.24v8.71a1.23,1.23,0,0,1-1.24,1.24Z" transform="translate(-14.03)"/></g><g class="cls-39"><path class="cls-30" d="M173.63,80V68.8h49.13A1.23,1.23,0,0,1,224,70v8.71A1.24,1.24,0,0,1,222.76,80Z" transform="translate(-14.03)"/></g><g class="cls-39"><path class="cls-42" d="M173.63,80V68.8h49.13A1.23,1.23,0,0,1,224,70v8.71A1.24,1.24,0,0,1,222.76,80Z" transform="translate(-14.03)"/></g><g class="cls-39"><path class="cls-30" d="M173.63,62.58V51.38h39.18a1.24,1.24,0,0,1,1.24,1.25v8.7a1.24,1.24,0,0,1-1.24,1.25Z" transform="translate(-14.03)"/></g><g class="cls-39"><path class="cls-42" d="M173.63,62.58V51.38h39.18a1.24,1.24,0,0,1,1.24,1.25v8.7a1.24,1.24,0,0,1-1.24,1.25Z" transform="translate(-14.03)"/></g><g class="cls-39"><path class="cls-30" d="M173.63,45.78V34.59H189.8A1.25,1.25,0,0,1,191,35.83v8.71a1.24,1.24,0,0,1-1.24,1.24Z" transform="translate(-14.03)"/></g><g class="cls-39"><path class="cls-42" d="M173.63,45.78V34.59H189.8A1.25,1.25,0,0,1,191,35.83v8.71a1.24,1.24,0,0,1-1.24,1.24Z" transform="translate(-14.03)"/></g><g class="cls-39"><path class="cls-30" d="M173.63,29V17.8h6.84A1.24,1.24,0,0,1,181.71,19v8.71A1.24,1.24,0,0,1,180.47,29Z" transform="translate(-14.03)"/></g><g class="cls-39"><path class="cls-42" d="M173.63,29V17.8h6.84A1.24,1.24,0,0,1,181.71,19v8.71A1.24,1.24,0,0,1,180.47,29Z" transform="translate(-14.03)"/></g></g></g></svg>