<svg xmlns="http://www.w3.org/2000/svg" xmlns:xlink="http://www.w3.org/1999/xlink" viewBox="0 0 295.61 237.37"><defs><style>.cls-1{fill:none;}.cls-2{font-size:12px;}.cls-12,.cls-15,.cls-18,.cls-19,.cls-2,.cls-33,.cls-6{fill:#231f20;font-family:Futura-Medium, Futura;font-weight:500;}.cls-3{letter-spacing:-0.08em;}.cls-4{letter-spacing:-0.06em;}.cls-5{letter-spacing:-0.08em;}.cls-12,.cls-15,.cls-18,.cls-33,.cls-6{font-size:9px;}.cls-13,.cls-6{letter-spacing:-0.03em;}.cls-18,.cls-7{letter-spacing:-0.03em;}.cls-8{letter-spacing:-0.04em;}.cls-9{letter-spacing:-0.16em;}.cls-10{letter-spacing:-0.04em;}.cls-11{letter-spacing:-0.05em;}.cls-12{letter-spacing:-0.11em;}.cls-14{letter-spacing:-0.04em;}.cls-15,.cls-34{letter-spacing:-0.11em;}.cls-16{letter-spacing:-0.12em;}.cls-17{letter-spacing:-0.03em;}.cls-19{font-size:10px;letter-spacing:-0.08em;}.cls-20{letter-spacing:-0.03em;}.cls-21{letter-spacing:-0.02em;}.cls-22{letter-spacing:-0.03em;}.cls-23{letter-spacing:-0.18em;}.cls-24{letter-spacing:-0.08em;}.cls-25{letter-spacing:-0.03em;}.cls-26{letter-spacing:-0.11em;}.cls-27{letter-spacing:-0.11em;}.cls-28{clip-path:url(#clip-path);}.cls-29{fill:#207b8d;}.cls-30{clip-path:url(#clip-path-13);}.cls-31{fill:#b83350;}.cls-32{fill:#fff;}.cls-33{letter-spacing:-0.09em;}</style><clipPath id="clip-path" transform="translate(-13.78 -2.96)"><rect class="cls-1" width="323.07" height="205.18"/></clipPath><clipPath id="clip-path-13" transform="translate(-13.78 -2.96)"><rect class="cls-1" x="49" width="323.07" height="205.18"/></clipPath></defs><g id="Layer_2" data-name="Layer 2"><g id="Layer_1-2" data-name="Layer 1"><text class="cls-2" transform="translate(91.98 213)">2<tspan class="cls-3" x="7.41" y="0">0</tspan><tspan class="cls-4" x="13.89" y="0">1</tspan><tspan x="20.57" y="0">0</tspan></text><text class="cls-2" transform="translate(163.09 213)">2<tspan class="cls-3" x="7.41" y="0">0</tspan><tspan class="cls-5" x="13.89" y="0">1</tspan><tspan x="20.32" y="0">9</tspan></text><text class="cls-6" transform="translate(119.84 11.08)">85 &amp; older</text><text class="cls-6" transform="translate(123.22 28.43)">75 <tspan class="cls-7" x="13.02" y="0">t</tspan><tspan x="15.26" y="0">o </tspan><tspan class="cls-8" x="22.87" y="0">8</tspan><tspan x="28.02" y="0">4</tspan></text><text class="cls-6" transform="translate(123.22 44.48)">65 <tspan class="cls-7" x="13.02" y="0">t</tspan><tspan x="15.26" y="0">o </tspan><tspan class="cls-9" x="22.87" y="0">7</tspan><tspan x="27.01" y="0">4</tspan></text><text class="cls-6" transform="translate(122.41 61.11)">55 <tspan class="cls-7" x="13.02" y="0">t</tspan><tspan x="15.26" y="0">o </tspan><tspan class="cls-10" x="22.87" y="0">6</tspan><tspan x="28.06" y="0">4</tspan></text><text class="cls-6" transform="translate(123.22 78.72)">45 <tspan class="cls-7" x="13.02" y="0">t</tspan><tspan x="15.26" y="0">o </tspan><tspan class="cls-11" x="22.87" y="0">5</tspan><tspan x="27.93" y="0">4</tspan></text><text class="cls-6" transform="translate(123.68 95.1)">35 <tspan class="cls-7" x="13.02" y="0">t</tspan><tspan x="15.26" y="0">o 44</tspan></text><text class="cls-6" transform="translate(123.45 112.12)">25 <tspan class="cls-7" x="13.02" y="0">t</tspan><tspan x="15.26" y="0">o </tspan><tspan class="cls-11" x="22.87" y="0">3</tspan><tspan x="27.93" y="0">4</tspan></text><text class="cls-12" transform="translate(123.45 127.66)">1<tspan class="cls-13" x="4.59" y="0">8 </tspan><tspan class="cls-7" x="12.35" y="0">t</tspan><tspan class="cls-13" x="14.58" y="0">o </tspan><tspan class="cls-14" x="22.19" y="0">2</tspan><tspan class="cls-13" x="27.4" y="0">4</tspan></text><text class="cls-15" transform="translate(123.45 144.36)">1<tspan class="cls-13" x="4.55" y="0">5 </tspan><tspan class="cls-7" x="12.31" y="0">t</tspan><tspan class="cls-13" x="14.55" y="0">o </tspan><tspan class="cls-16" x="22.16" y="0">1</tspan><tspan class="cls-13" x="26.59" y="0">7</tspan></text><text class="cls-6" transform="translate(126.15 178.55)">5 <tspan class="cls-17" x="7.76" y="0">t</tspan><tspan x="9.99" y="0">o 9</tspan></text><text class="cls-18" transform="translate(122.41 193.97)">U<tspan class="cls-13" x="6.42" y="0">nder 5</tspan></text><text class="cls-19" transform="translate(162.38 226.06)">T<tspan class="cls-20" x="4.06" y="0">o</tspan><tspan class="cls-21" x="9.8" y="0">t</tspan><tspan class="cls-22" x="12.31" y="0">al population: </tspan><tspan class="cls-23" x="73.91" y="0">1</tspan><tspan class="cls-24" x="78.3" y="0">1</tspan><tspan class="cls-25" x="83.69" y="0">,5</tspan><tspan class="cls-26" x="92.31" y="0">5</tspan><tspan class="cls-25" x="97.4" y="0">1</tspan></text><text class="cls-19" transform="translate(15.03 224.45)">T<tspan class="cls-20" x="4.06" y="0">o</tspan><tspan class="cls-21" x="9.8" y="0">t</tspan><tspan class="cls-22" x="12.31" y="0">al population: </tspan><tspan class="cls-27" x="73.91" y="0">1</tspan><tspan class="cls-22" x="78.97" y="0">4,032</tspan></text><g class="cls-28"><path class="cls-29" d="M129.29,199.9V189.27H64.81V199.9Z" transform="translate(-13.78 -2.96)"/></g><g class="cls-28"><path class="cls-29" d="M129.29,182.89V172.26H83.94v10.63Z" transform="translate(-13.78 -2.96)"/></g><g class="cls-28"><path class="cls-29" d="M129.29,166.59V156H57.72v10.63Z" transform="translate(-13.78 -2.96)"/></g><g class="cls-28"><path class="cls-29" d="M129.29,149.58V139H70.47v10.63Z" transform="translate(-13.78 -2.96)"/></g><g class="cls-28"><path class="cls-29" d="M129.29,133.28V122.65H32.92v10.63Z" transform="translate(-13.78 -2.96)"/></g><g class="cls-28"><path class="cls-29" d="M129.29,116.28V105.65H13.78v10.63Z" transform="translate(-13.78 -2.96)"/></g><g class="cls-28"><path class="cls-29" d="M129.29,100V89.35H23.7V100Z" transform="translate(-13.78 -2.96)"/></g><g class="cls-28"><path class="cls-29" d="M129.29,83.68V73.05H25.12V83.68Z" transform="translate(-13.78 -2.96)"/></g><g class="cls-28"><path class="cls-29" d="M129.29,66.67V56H15.91V66.67Z" transform="translate(-13.78 -2.96)"/></g><g class="cls-28"><path class="cls-29" d="M129.29,50.37V39.74H54.88V50.37Z" transform="translate(-13.78 -2.96)"/></g><g class="cls-28"><path class="cls-29" d="M129.29,33.37V22.74H76.85V33.37Z" transform="translate(-13.78 -2.96)"/></g><g class="cls-28"><path class="cls-29" d="M129.29,17.07V6.44h-5V17.07Z" transform="translate(-13.78 -2.96)"/></g><g class="cls-30"><path class="cls-31" d="M178.29,199.9V189.27h43.23a1.42,1.42,0,0,1,1.42,1.41v7.8a1.43,1.43,0,0,1-1.42,1.42Z" transform="translate(-13.78 -2.96)"/></g><g class="cls-30"><path class="cls-31" d="M178.29,182.89V172.26h40.4a1.41,1.41,0,0,1,1.41,1.42v7.79a1.41,1.41,0,0,1-1.41,1.42Z" transform="translate(-13.78 -2.96)"/></g><g class="cls-30"><path class="cls-31" d="M178.29,166.59V156H213a1.42,1.42,0,0,1,1.41,1.42v7.79a1.41,1.41,0,0,1-1.41,1.42Z" transform="translate(-13.78 -2.96)"/></g><g class="cls-30"><path class="cls-31" d="M178.29,149.58V139h20.55a1.42,1.42,0,0,1,1.42,1.42v7.8a1.41,1.41,0,0,1-1.42,1.41Z" transform="translate(-13.78 -2.96)"/></g><g class="cls-30"><path class="cls-31" d="M178.29,133.28V122.65H247a1.43,1.43,0,0,1,1.42,1.42v7.8a1.42,1.42,0,0,1-1.42,1.41Z" transform="translate(-13.78 -2.96)"/></g><g class="cls-30"><path class="cls-31" d="M178.29,116.28V105.65h96.38a1.42,1.42,0,0,1,1.42,1.41v7.8a1.43,1.43,0,0,1-1.42,1.42Z" transform="translate(-13.78 -2.96)"/></g><g class="cls-30"><path class="cls-31" d="M178.29,100V89.35H252a1.42,1.42,0,0,1,1.42,1.42v7.79A1.43,1.43,0,0,1,252,100Z" transform="translate(-13.78 -2.96)"/></g><g class="cls-30"><path class="cls-31" d="M178.29,83.68V73.05H308a1.41,1.41,0,0,1,1.42,1.42v7.79A1.42,1.42,0,0,1,308,83.68Z" transform="translate(-13.78 -2.96)"/></g><g class="cls-30"><path class="cls-31" d="M178.29,66.67V56H269a1.43,1.43,0,0,1,1.42,1.42v7.79A1.42,1.42,0,0,1,269,66.67Z" transform="translate(-13.78 -2.96)"/></g><g class="cls-30"><path class="cls-31" d="M178.29,50.37V39.74H260.5a1.42,1.42,0,0,1,1.41,1.42V49a1.41,1.41,0,0,1-1.41,1.41Z" transform="translate(-13.78 -2.96)"/></g><g class="cls-30"><path class="cls-31" d="M178.29,33.37V22.74h39a1.42,1.42,0,0,1,1.42,1.41V32a1.43,1.43,0,0,1-1.42,1.42Z" transform="translate(-13.78 -2.96)"/></g><g class="cls-30"><path class="cls-31" d="M178.29,17.07V6.44h9.21a1.41,1.41,0,0,1,1.42,1.41v7.8a1.42,1.42,0,0,1-1.42,1.42Z" transform="translate(-13.78 -2.96)"/></g><rect class="cls-32" x="174.27" width="2.26" height="16.49"/><rect class="cls-32" x="204.18" y="17.06" width="2.26" height="16.49"/><rect class="cls-32" x="247.18" y="33.06" width="2.26" height="16.49"/><rect class="cls-32" x="238.18" y="83.06" width="2.26" height="16.49"/><rect class="cls-32" x="234.18" y="118.06" width="2.26" height="16.49"/><rect class="cls-32" x="186.18" y="133.06" width="2.26" height="16.49"/><rect class="cls-32" x="213.18" y="157.06" width="2.26" height="16.49"/><rect class="cls-32" x="233.67" y="115.7" width="2.26" height="16.49"/><rect class="cls-32" x="185.47" y="133.71" width="2.26" height="16.49"/><rect class="cls-32" x="199.47" y="148.71" width="2.26" height="16.49"/><rect class="cls-32" x="205.47" y="165.71" width="2.26" height="16.49"/><rect class="cls-32" x="207.47" y="184.71" width="2.26" height="16.49"/><text class="cls-33" transform="translate(122.58 162.26)">1<tspan class="cls-13" x="4.73" y="0">0 </tspan><tspan class="cls-7" x="12.48" y="0">t</tspan><tspan class="cls-13" x="14.72" y="0">o </tspan><tspan class="cls-34" x="22.33" y="0">1</tspan><tspan class="cls-13" x="26.88" y="0">4</tspan></text></g></g></svg>